<?xml version="1.0" encoding="utf-8"?>
<!-- Generator: Adobe Illustrator 24.1.2, SVG Export Plug-In . SVG Version: 6.00 Build 0)  -->
<svg version="1.1" id="Layer_1" xmlns="http://www.w3.org/2000/svg" xmlns:xlink="http://www.w3.org/1999/xlink" x="0px" y="0px"
	 viewBox="0 0 250 70" style="enable-background:new 0 0 250 70;" xml:space="preserve">
<style type="text/css">
	.st0{fill:#8FBC8F;}
</style>
<g>
	<path class="st0" d="M30.6,66c12.5,0,24.5,1.3,36,4h4.2C49.1,64.3,25,63.5,0,67.5v1C10.4,66.8,20.6,66,30.6,66z"/>
	<path class="st0" d="M36.2,57.6c18.6,0,37.8,2.9,56.4,10.5c1.5,0.6,2.9,1.2,4.3,1.9h2.4c-2-0.9-4.1-1.9-6.3-2.8
		C61.9,54.6,29.1,54.7,0,60.1v1C11.6,59,23.8,57.6,36.2,57.6z"/>
	<path class="st0" d="M26.8,51.4C59.6,50.9,86,59.7,105.5,70h2.1C87.8,59.2,60.7,49.8,26.8,50.4C17.9,50.6,9,51.4,0,52.9v1
		C9,52.4,18,51.6,26.8,51.4z"/>
	<path class="st0" d="M32.5,48.4c3.5,0,7.1,0.1,10.7,0.3c26.6,1.5,50.3,8.6,70.9,21.3h1.9C95,56.7,70.7,49.2,43.3,47.7
		C28.1,46.8,13.5,47.9,0,49.9v1C10.2,49.4,21.2,48.4,32.5,48.4z"/>
	<path class="st0" d="M31.3,43.6c20.7,0,42,3.1,62.6,11c11.7,4.5,21.6,10,29.5,15.4h1.8c-8.1-5.6-18.4-11.5-30.8-16.3
		c-19.4-7.4-40.9-11.2-63.8-11.1c-9.9,0-20,0.8-30.4,2.2v1.1C10.2,44.5,20.7,43.6,31.3,43.6z"/>
	<path class="st0" d="M30.9,39.7c6.8,0,13.8,0.1,21.1,0.4C86.4,41.6,113.5,55,133.3,70h1.7c-20-15.4-47.6-29.4-82.9-30.8
		c-18.8-0.8-36-0.5-52,0.7v1C9.8,40.1,20.1,39.7,30.9,39.7z"/>
	<path class="st0" d="M12.3,35c4.6-0.2,9.1-0.4,13.6-0.4c37,0,69.9,8,98,24c6,3.4,11.8,7.2,17.4,11.3h1.7
		c-5.9-4.5-12.1-8.5-18.5-12.2c-31.7-18-69.4-26-112.2-23.8C8.1,34.3,4,34.5,0,34.9v1C4,35.5,8.1,35.3,12.3,35z"/>
	<path class="st0" d="M7.6,28.5c12.9,0,20.9,0.9,21,1c0,0,0,0,0,0c50.3,2.2,87.8,13.9,117.9,36.7c1.6,1.2,3.2,2.5,4.8,3.8h1.6
		c-1.9-1.6-3.8-3.1-5.7-4.6c-30.3-23-67.9-34.7-118.5-36.9c-0.6-0.1-11.6-1.3-28.7-0.8v1C2.7,28.6,5.2,28.5,7.6,28.5z"/>
	<path class="st0" d="M151.1,63.4c2.7,2.1,5.3,4.3,7.9,6.6h1.5c-2.8-2.5-5.7-5-8.8-7.4C115.5,34.4,65.7,21.2,0,22.5v1
		C65.5,22.2,115,35.3,151.1,63.4z"/>
	<path class="st0" d="M15.4,18.9c0,0,0.1,0,0.1,0c76.7,1.2,123.3,25,151.5,51h1.5c-28.2-26.5-75.2-50.8-152.9-52
		c-0.7-0.2-6.9-1.7-15.6-3v1C9,17.3,15.3,18.9,15.4,18.9z"/>
	<path class="st0" d="M4.6,11.2c17.7-1.7,61.1,6.2,62.2,6.4C127.5,33.3,155.2,48,175,70h1.4c-20-22.5-47.7-37.4-109.3-53.4
		c0,0,0,0,0,0c-0.4-0.1-44.6-8.1-62.5-6.4c-1.3,0.1-2.8,0.2-4.5,0.2v1C1.7,11.4,3.2,11.3,4.6,11.2z"/>
</g>
</svg>
