<?xml version="1.0" encoding="utf-8"?>
<!-- Generator: Adobe Illustrator 24.1.2, SVG Export Plug-In . SVG Version: 6.00 Build 0)  -->
<svg version="1.1" id="Layer_1" xmlns="http://www.w3.org/2000/svg" xmlns:xlink="http://www.w3.org/1999/xlink" x="0px" y="0px"
	 viewBox="0 0 230 80" style="enable-background:new 0 0 230 80;" xml:space="preserve">
<style type="text/css">
	.st0{fill:#8FBC8F;}
</style>
<g>
	<path class="st0" d="M224.9,0h-2c2.3,1.4,4.7,2.6,7.1,3.7V2.6C228.3,1.8,226.6,0.9,224.9,0z"/>
	<path class="st0" d="M202.6,0H201c9.2,7.6,19.5,12.8,29,16.4v-1.1C221,11.9,211.4,7,202.6,0z"/>
	<path class="st0" d="M188.6,0h-1.4c9.5,10,23.3,20.8,42.7,27.3v-1.1C211.4,20,197.9,9.7,188.6,0z"/>
	<path class="st0" d="M220.2,27.3C199.7,16.8,190.3,10.1,182.1,0h-1.3c8.4,10.6,17.8,17.3,38.9,28.2c3.3,1.7,6.7,3.2,10.3,4.5v-1.1
		C226.6,30.4,223.3,28.9,220.2,27.3z"/>
	<path class="st0" d="M203.1,28l-0.6-0.4c-12.9-8.4-24.1-15.7-33.8-27.7h-1.3c9.9,12.4,21.3,19.9,34.6,28.5l0.6,0.4
		c4.5,2.9,14,8.5,27.4,12.8v-1.1C216.9,36.4,207.6,30.9,203.1,28z"/>
	<path class="st0" d="M200.8,35c-2.8-2-5.9-4.2-10.2-7C179,20.6,169.1,12.5,159.8,0h-1.2c9.4,12.9,19.6,21.3,31.4,28.9
		c4.3,2.8,7.4,5,10.2,7c8.3,5.9,12.4,8.8,29.8,12.9v-1C213,43.7,208.9,40.8,200.8,35z"/>
	<path class="st0" d="M187.4,35.3C172,24.7,159.8,13.1,150.6,0h-1.2c9.3,13.5,21.7,25.3,37.4,36.1C201.2,45.9,216,51.7,230,55v-1
		C216.2,50.7,201.5,45,187.4,35.3z"/>
	<path class="st0" d="M141.5,0h-1.2c22.4,33.6,60.3,53.9,89.7,59.7v-1C201,52.9,163.7,33,141.5,0z"/>
	<path class="st0" d="M169.1,38.3C152,28.6,139.5,14.5,130.5,0h-1.2c9.1,14.8,21.8,29.3,39.2,39.2c17.2,9.8,38,19.9,61.4,25.2v-1
		C206.8,58,186.2,48,169.1,38.3z"/>
	<path class="st0" d="M165,49.9c-6.2-4.5-11.6-8.4-16.6-11.1C136,31.9,123.2,18.1,113,0h-1.1c10.3,18.5,23.4,32.7,36.1,39.7
		c4.9,2.7,10.3,6.6,16.5,11.1c13.9,10,31.4,22.6,54.3,29.2h3.9C198.1,73.8,179.6,60.5,165,49.9z"/>
	<path class="st0" d="M168.6,44c-27.1-17-35.4-27.3-45.4-44H122c10.2,17.1,18.5,27.6,46.1,44.8c19.5,12.2,40.7,20.6,61.9,25v-1
		C208.9,64.4,187.9,56,168.6,44z"/>
	<path class="st0" d="M140.3,45.6C123.1,31.1,110.2,15.6,102.2,0h-1.1c8.1,15.8,21.2,31.7,38.6,46.4c15.5,13.1,34.1,25,52.3,33.6
		h2.4C175.5,71.4,156.3,59.2,140.3,45.6z"/>
	<path class="st0" d="M170.9,77.1c-21.9-9.9-44.7-30.9-62.6-57.7C104,13,100.2,6.5,96.8,0h-1.1c3.5,6.7,7.4,13.4,11.8,20
		c18,26.9,41,48,63,58c1.5,0.7,3,1.3,4.5,2h2.6C175.3,79.1,173.1,78.1,170.9,77.1z"/>
	<path class="st0" d="M155.4,75.8C126.7,57.9,105.1,32.5,90.8,0h-1.1c14.3,32.9,36.1,58.6,65.1,76.7c1.9,1.2,3.7,2.3,5.6,3.3h2
		C160.1,78.7,157.8,77.3,155.4,75.8z"/>
	<path class="st0" d="M93.5,27.4C87.5,18.6,82.4,9.5,78,0h-1.1c4.4,9.7,9.7,19,15.8,27.9c14.4,21.1,33,39,53.2,52.1h1.9
		C127.1,66.9,108.2,48.8,93.5,27.4z"/>
	<path class="st0" d="M81.4,20.4C77.5,13.8,74.1,7,71.1,0H70c3.1,7.1,6.6,14.1,10.6,20.9c13.8,23.6,32.7,43.7,55.2,59.1h1.8
		C114.6,64.5,95.4,44.3,81.4,20.4z"/>
	<path class="st0" d="M121,76.9C97.4,61.8,76.5,29.6,63.5,0h-1.2C68.4,14.3,76,28,84.5,40.4c11.5,16.6,24.3,29.9,36,37.4
		c1.1,0.7,2.3,1.5,3.5,2.2h1.9C124.1,78.9,122.6,77.9,121,76.9z"/>
	<path class="st0" d="M80,46.2C69.6,32.4,61.2,16.9,54.9,0h-1.1c6.3,17.1,14.8,32.8,25.4,46.8C88.5,59.1,99.5,70.2,112,80h1.6
		C100.8,70.1,89.5,58.8,80,46.2z"/>
	<path class="st0" d="M96.6,75.1C72,51.9,60.5,27.6,55,15.9c-0.9-1.9-1.6-3.4-2.2-4.5C51.7,9.3,49.9,5.4,47.9,0h-1.1
		c2.1,5.6,3.9,9.7,5.1,12c0.6,1.1,1.3,2.5,2.1,4.4c5.5,11.7,17,36.1,41.8,59.5c1.5,1.4,3,2.8,4.6,4.1h1.5
		C100.2,78.4,98.4,76.8,96.6,75.1z"/>
	<path class="st0" d="M72.7,61.4C57.8,46.1,45.4,22.8,36.9,0h-1.2C39,8.9,42.8,17.5,47,25.7c7.7,14.9,16.6,27.9,25,36.4
		c5.8,5.9,11.9,12,18.5,17.9h1.3C84.2,73.2,78,66.8,72.7,61.4z"/>
	<path class="st0" d="M44.9,36.2c-7.8-13-13.6-25-18.1-36.2h-1.1c4.5,11.4,10.4,23.6,18.3,36.7C53.5,52.4,65.6,67,79.6,80h1.5
		C66.8,66.9,54.5,52.1,44.9,36.2z"/>
	<path class="st0" d="M31.1,27.9c-5-10-9.3-19.2-12.9-27.9h-1.1c3.6,8.9,8,18.2,13.1,28.4C39.1,46,53.1,63.7,70.9,80h1.6
		C54.9,63.9,40.2,46,31.1,27.9z"/>
</g>
</svg>
