<?xml version="1.0" encoding="utf-8"?>
<!-- Generator: Adobe Illustrator 24.1.2, SVG Export Plug-In . SVG Version: 6.00 Build 0)  -->
<svg version="1.1" id="Layer_1" xmlns="http://www.w3.org/2000/svg" xmlns:xlink="http://www.w3.org/1999/xlink" x="0px" y="0px"
	 viewBox="0 0 50 170" style="enable-background:new 0 0 50 170;" xml:space="preserve">
<style type="text/css">
	.st0{fill:#8FBC8F;}
</style>
<g>
	<path class="st0" d="M45.5,76.4c0.6-10.2,2.1-20.1,4.4-29.6v-3.9c-2.9,10.8-4.8,22-5.4,33.5c-1.1,18.4,0.8,37.5,5.4,56.7v-4.4
		C46,110.9,44.5,93.4,45.5,76.4z"/>
	<path class="st0" d="M46.1,139c-8-39.2-6.5-77,3.8-111v-3.4c-11.3,34.9-13.1,74-4.8,114.6c1.3,6.5,3,12.9,4.8,19.1v-3.5
		C48.5,149.7,47.2,144.4,46.1,139z"/>
	<path class="st0" d="M32.9,100.4C30.4,63.9,36,30.3,49.7,0h-1c-4.5,10.1-8.2,20.6-10.9,31.4c-5.6,21.8-7.5,45-5.9,69.1
		c2.1,29.6,9.4,54.8,14.9,69.6h1.1C42.4,155.4,35,130.2,32.9,100.4z"/>
	<path class="st0" d="M27,136.9C19.9,103.2,17.4,53.6,42.2,0h-1.1c-24.7,53.6-22.2,103.4-15,137.1c2.4,11.1,5.6,22.2,9.6,32.9h1.2
		C32.6,158.5,29.2,147.1,27,136.9z"/>
	<path class="st0" d="M14,79.4c0.1-7,0.3-14.2,0.2-21.4c-0.2-15.5,5.8-35.9,16.8-58h-1.1C18.9,22.1,12.9,42.5,13.2,58
		c0.1,7.2,0,14.4-0.2,21.3c-0.5,27.3-1.1,55.2,12.8,90.7h1.1C12.9,134.6,13.5,106.6,14,79.4z"/>
	<path class="st0" d="M6.7,52.4C9.2,33.6,14.9,15.9,22.1,0H21C13.9,15.9,8.2,33.5,5.7,52.2c-6.5,49.2-4.3,79.2,11.5,117.8h1.1
		C2.4,131.4,0.1,101.5,6.7,52.4z"/>
</g>
</svg>
