<?xml version="1.0" encoding="utf-8"?>
<!-- Generator: Adobe Illustrator 24.1.2, SVG Export Plug-In . SVG Version: 6.00 Build 0)  -->
<svg version="1.1" id="Layer_1" xmlns="http://www.w3.org/2000/svg" xmlns:xlink="http://www.w3.org/1999/xlink" x="0px" y="0px"
	 viewBox="0 0 400 170" style="enable-background:new 0 0 400 170;" xml:space="preserve">
<style type="text/css">
	.st0{fill:#8FBC8F;}
</style>
<path class="st0" d="M231.4,129.3c9,0,16.4-2.4,18.8-3.7c1.6-0.8,3-1.6,4.4-2.3c9.4-4.8,14.6-7.5,21.3-22.2c0,0,0,0,0,0
	c4.7-10.2,8-31.4-8.8-46.6c-18.4-16.6-39.7-13.6-53.5-5.1c-4.1,2.5-14.3,9.6-20,21.5c-5.7,11.9-5.1,24.4,2,37.3
	C204.7,125,219.4,129.3,231.4,129.3z M214,50.3c6.5-4,14.6-6.7,23.4-6.7c9.5,0,19.6,3.2,29,11.7c16.4,14.8,13.1,35.5,8.5,45.4h0
	c-6.6,14.4-11.7,17-20.8,21.7c-1.4,0.7-2.8,1.5-4.4,2.3c-5.3,2.8-37.6,11.8-53.3-17C177.7,73.7,210.2,52.6,214,50.3z"/>
<path class="st0" d="M204.9,137.8c10.4,3.9,19.5,5.9,27.6,5.9c8.1,0,15.1-2,21.2-5.9c8.6-5.6,16.5-12.8,22.4-20.4
	c7.6-9.7,11.7-19.8,12.5-30c0.1-0.4,1.2-6.1,5.5-10.3c2.4-2.4,3.2-6.8,1.9-10.9c-1.3-4.2-4.3-7-8.3-7.6c-5.7-1-7-3.8-8.6-7.4
	c-0.7-1.6-1.5-3.3-2.8-5.1c-11.6-15.8-28.5-21.7-48.9-16.9c-3.5,0.8-6.7,1.5-9.5,2.2c-21.7,4.9-26.8,6-38.6,25.9
	c-12.7,21.3-6,42.8-2.6,51C179.7,115.5,190.7,132.4,204.9,137.8z M180.1,57.7c11.6-19.5,16.1-20.5,38-25.4c2.9-0.6,6-1.4,9.5-2.2
	c4.5-1.1,8.9-1.6,13.1-1.6c14.1,0,26,6.1,34.8,18.1c1.2,1.7,2,3.3,2.7,4.9c1.7,3.7,3.1,6.8,9.3,7.9c3.6,0.6,6.3,3.2,7.5,7
	c1.2,3.8,0.5,7.7-1.7,9.9c-4.6,4.6-5.7,10.6-5.7,10.9c0,0,0,0,0,0c-0.5,6.7-4.3,30.1-34.4,49.7c-11.8,7.7-27.5,7.7-47.9,0
	c-15.3-5.8-25.8-24.4-27.7-29C174.1,99.7,167.6,78.6,180.1,57.7z"/>
<path class="st0" d="M170.4,43.1c-11,16.6-19,28.6-13.6,50.9c1.1,4.7,2,9,2.7,12.7c2.9,14.9,4.7,23.9,19.8,38.1
	c9.6,9,27.5,14.3,45.6,14.3c16.2,0,32.6-4.2,43.2-13.8c21.3-19.1,30.7-35,32.2-42.8c0,0,0,0,0,0c0-0.1,2.1-13.2,8.6-24.1
	c3.8-6.5,4.9-15.9-16.4-37c-1.3-1.3-2.7-2.7-4-4.1c-11.7-12.1-26.2-27.1-55.9-24.8c-32.6,2.5-48.4,9.8-60.5,28L170.4,43.1z
	 M232.6,13.4c2-0.2,3.9-0.2,5.8-0.2c25.4,0,38.6,13.6,49.3,24.8c1.4,1.4,2.7,2.8,4,4.1C303.5,53.7,314.5,67,308,77.9
	c-6.5,10.9-8.6,24-8.7,24.4c-1.5,7.6-10.8,23.2-31.9,42.2c-22,19.8-69.4,16.4-87.4-0.5c-14.9-14-16.6-22.9-19.5-37.6
	c-0.7-3.7-1.6-8-2.7-12.7c-5.3-21.9,2.6-33.7,13.5-50.1l1.7-2.6C184.8,23.1,200.4,15.9,232.6,13.4z"/>
<path class="st0" d="M275.9,14c21.5,16.8,32,30.5,37.1,39c5.5,9.2,5.9,14.4,5.9,14.5c0,0,0,0,0,0.1c1.3,6.4,1.3,7.8-1.3,14.6
	c-1.1,2.8-2,5.8-3.1,9c-1.3,4.1-2.8,8.8-4.9,14.1c-10.2,26.5-19,33.7-34.9,46.9l-0.2,0.1c-20.5,17-45.6,20.7-76.6,11.3
	c-36.5-11.1-46.5-30-55.1-68.3c-8.2-36.6,19.4-71.2,32.4-79.5c6.9-4.4,20.8-12.2,37.8-15.7h-4.4c-15.2,3.9-27.5,10.8-33.9,14.9
	c-13.1,8.4-41.2,43.4-32.8,80.6c8.7,38.6,18.8,57.8,55.8,69c11.2,3.4,21.7,5.1,31.4,5.1c17.5,0,32.7-5.5,46.1-16.6l0.2-0.1
	c15.5-12.8,24.9-20.6,35.2-47.3c2.1-5.3,3.6-10,4.9-14.2c1-3.2,2-6.3,3-9c2.7-7,2.7-8.6,1.3-15.1c-0.1-1.3-2.3-21.9-43.3-54.1
	C268.7,7,260.3,2.6,251.4,0h-4C257.6,2.4,267.1,7.1,275.9,14z"/>
<path class="st0" d="M316.3,36.9C316.4,36.9,316.4,36.9,316.3,36.9c8.5,10.9,17.3,22,12.5,52.1c-0.3,1.7-0.5,3.4-0.8,5
	c-1.7,12.1-2.4,12.9-14.2,27.6c-4.4,5.5-10.5,13-18.8,23.8c-8.5,11.1-17.6,19-26.9,24.6h1.9c8.9-5.6,17.7-13.3,25.8-23.9
	c8.2-10.8,14.3-18.3,18.7-23.8c11.8-14.6,12.7-15.8,14.5-28.1c0.2-1.7,0.5-3.3,0.8-5c2.4-15,4.8-30.5-12.7-52.9
	c-0.5-0.8-15.7-23.2-35.4-36.3H280C300.3,13,316.1,36.6,316.3,36.9z"/>
<path class="st0" d="M137.2,122.5C119.9,79.5,130,35.4,163,10c5.2-4,10.5-7.3,15.7-10h-2.1c-4.8,2.6-9.5,5.6-14.2,9.2
	c-33.4,25.6-43.6,70.3-26.2,113.6c10.3,25.5,23.2,39.2,36.7,47.1h2C161.1,162.3,147.7,148.6,137.2,122.5z"/>
<path class="st0" d="M126.2,131.9c-12.3-38.8-10.9-59.2-3.9-85.4c3.7-13.8,15.6-32.2,36.1-46.5h-1.7c-20,14.4-31.7,32.5-35.4,46.3
	c-7.1,26.4-8.4,46.9,3.9,86c5.3,16.6,14.8,28.8,25.8,37.8h1.6C141.4,161.1,131.5,148.8,126.2,131.9z"/>
<path class="st0" d="M318.3,21.6C318.3,21.6,318.3,21.6,318.3,21.6c3.6,5.6,4.8,6.7,5.9,7.6c1.3,1.1,2.4,2,8.3,13.2
	c7.7,14.8,10.4,27.1,4.7,57.2c-4.3,22.7-9.7,28.7-41.6,61.2c-3.4,3.4-6.9,6.5-10.4,9.3h1.6c3.3-2.6,6.4-5.5,9.5-8.6
	c32.1-32.6,37.5-38.7,41.9-61.7c4-20.9,6-37.3-4.8-57.8c-5.9-11.3-7-12.2-8.5-13.5c-1-0.8-2.2-1.9-5.7-7.3
	c-0.3-0.7-5.1-10.8-16.5-21.1h-1.5C313.3,10.8,318.2,21.5,318.3,21.6z"/>
<path class="st0" d="M320.3,12.6c4.8,9.5,8.6,12.4,8.7,12.5c0,0,4.8,4.7,9.2,13.8c4.1,8.4,8.8,22.5,7.8,41.8
	c-1.9,38-15.2,55.4-35.2,77.5c-3.5,3.9-7.5,7.9-11.9,11.8h1.5c4.1-3.7,7.8-7.5,11.1-11.2c20.2-22.3,33.5-39.8,35.5-78.2
	c1.9-37.3-17.2-56.2-17.4-56.4c0,0-3.8-2.9-8.5-12.2c0,0,0,0,0,0c-0.1-0.1-2.9-5.5-8.8-12.1H311C317.2,6.8,320.2,12.4,320.3,12.6z"
	/>
<path class="st0" d="M121.4,145.5l-0.6-1.3c-16.5-37.3-18.1-72.1-4.7-103.2c7.7-17.9,19-31.2,31.2-41h-1.6
	c-11.9,9.8-23,23-30.6,40.6c-8.7,20.2-11.2,42-7.4,65c3,18.5,9.4,32.9,12.1,39l0.6,1.3c0.4,0.9,5.4,12,16.8,24.1h1.4
	C126.9,157.8,121.8,146.5,121.4,145.5z"/>
<path class="st0" d="M115.7,144.9c-17.4-28.9-15.8-59-11.6-87.4c2.7-18.2,15.1-40.2,35-57.5h-1.5c-19.6,17.4-31.8,39.3-34.5,57.4
	c-4.3,28.5-5.8,58.9,11.7,88c6.4,10.7,11,18.3,16,24.6h1.3C126.9,163.7,122.3,155.9,115.7,144.9z"/>
<path class="st0" d="M319.8,2.9c4.6,10,9.3,15.7,9.5,15.9l1.5,1.8c3.9,4.9,6.8,8.5,11,16.5c4.4,8.3,17.9,45.7,4.3,77.9
	c-8.5,20.2-21.8,38.8-39,55h1.5c17-16.1,30.1-34.6,38.5-54.6c13.7-32.5,0.1-70.4-4.3-78.7c-4.2-8.1-7.1-11.7-11.1-16.6l-1.5-1.8
	c0,0,0,0,0,0c0-0.1-4.8-5.6-9.4-15.7c-0.4-0.8-0.8-1.6-1.4-2.5h-1.2C318.8,1,319.4,2,319.8,2.9z"/>
<path class="st0" d="M104.7,146.9c-13.3-29.1-20.3-75,0-116.3C110.3,19,117.4,8.8,125.8,0h-1.4c-8.2,8.7-15.1,18.8-20.6,30.1
	c-20.5,41.7-13.4,87.8,0,117.2c4.3,9.3,8.8,16.6,13.7,22.8h1.3C113.7,163.8,109,156.4,104.7,146.9z"/>
<path class="st0" d="M332.1,13.6C332.1,13.6,332.2,13.7,332.1,13.6c23.5,28,24.8,55.1,25.2,64c0,0.9,0.1,1.6,0.1,2.2
	c0.2,2.6,0.1,4.6,0,7.2c-0.1,2.9-0.3,6.5,0,12.3c0.2,5.1-2,18.3-11.9,35.5c-7.1,12.3-16.6,24.1-28.3,35.3h1.5
	c11.5-11.1,20.8-22.7,27.8-34.8c10-17.3,12.3-30.8,12-36c-0.3-5.7-0.1-9.3,0-12.2c0.1-2.6,0.2-4.7,0-7.4c0-0.5-0.1-1.2-0.1-2.1
	c-0.4-9-1.7-36.3-25.3-64.4c-0.3-0.6-3.4-6.2-8.6-13.1h-1.3C328.8,7.4,332.1,13.5,332.1,13.6z"/>
<path class="st0" d="M231.5,113.5c0.7,0,1.4,0,2.1,0c14.1,0,21.5-5.2,26.3-18.1c0,0,0,0,0-0.1c0.1-0.2,5-22.2-12-30.4
	c-8.4-4-18.6-3.6-27.2,1.1c-7.6,4.2-12.8,11.1-13.7,18.5c-1,7.7,1,14.8,5.5,20.1C217.3,110.2,224,113.3,231.5,113.5z M208.1,84.8
	c0.9-7.1,5.8-13.7,13.2-17.7c4.6-2.5,9.6-3.7,14.5-3.7c4.1,0,8.2,0.9,11.9,2.7c16,7.7,11.6,28.3,11.4,29.2
	c-4.9,13-12.6,17.9-27.5,17.3c-7.3-0.2-13.8-3.2-18.1-8.4C209.1,99.1,207.2,92.2,208.1,84.8z"/>
<path class="st0" d="M91.4,136.6c-13.9-32.4-6.2-85.8,18.3-127.1c1.9-3.2,4.3-6.4,7-9.5h-1.3c-2.5,2.9-4.7,5.9-6.5,9
	c-24.6,41.5-32.3,95.3-18.3,128c5.9,13.8,11.9,24.4,18.2,33h1.2C103.5,161.4,97.4,150.6,91.4,136.6z"/>
<path class="st0" d="M332.9,1.1c10,13,21.3,29.9,28.2,64.8c8.7,43.7,1,67.2-35.8,104.1h1.4c36.5-36.8,44.1-60.5,35.4-104.3
	c-6.9-35.1-18.3-52.1-28.4-65.2c-0.1-0.2-0.2-0.3-0.4-0.5h-1.3C332.3,0.4,332.6,0.8,332.9,1.1z"/>
<path class="st0" d="M344,9.2c6.3,10.9,15.1,28.9,21.5,52.4c8.6,31.7,2.8,62-17.3,90c-4.7,6.6-10,12.7-15.6,18.4h1.4
	c5.3-5.6,10.4-11.5,15-17.9c20.3-28.3,26.1-58.8,17.4-90.8c-6.4-23.6-15.3-41.6-21.6-52.6c-1.9-3.3-3.7-6.2-5.3-8.7h-1.2
	C340,2.6,341.9,5.6,344,9.2z"/>
<path class="st0" d="M79.2,70.5C81,46.6,92.6,21.2,110.8,0h-1.3C91.4,21.2,80,46.6,78.2,70.5c-3.2,41.8,3.3,73.7,21.2,99.6h1.2
	C82.6,144.2,76,112.4,79.2,70.5z"/>
<path class="st0" d="M363.4,39.2l0.4,1.1c3.5,8.9,11.6,29.6,10.4,55c-1.3,27.3-12.9,52.4-34.3,74.7h1.4
	c21.2-22.4,32.6-47.4,33.9-74.7c1.2-25.6-7-46.5-10.5-55.4l-0.1-0.2c0,0,0,0,0,0l-0.3-0.8c-4.7-11.9-10-25.6-18.1-38.8h-1.2
	C353.2,13.4,358.7,27.2,363.4,39.2z"/>
<path class="st0" d="M74.4,128.8c-6.3-33.1-6.8-57.6-1.7-79.3C77,31.5,85.2,15.5,98.1,0h-1.3C84.1,15.4,76,31.4,71.7,49.2
	C66.5,71.1,67,95.7,73.4,129c2.9,15.3,8.9,29,16.9,41h1.2C83.4,158,77.3,144.2,74.4,128.8z"/>
<path class="st0" d="M367.6,32.6C367.6,32.6,367.6,32.6,367.6,32.6c22,60.2,18,96.8-21.8,137.4h1.4c39.5-40.6,43.4-77.4,21.3-137.7
	c-0.1-0.4-5-14.8-16-32.3h-1.2C362.6,17.8,367.5,32.5,367.6,32.6z"/>
<path class="st0" d="M58.3,111.5C55.5,95,56.1,35.2,83.1,0h-1.3C55.1,35.6,54.5,95.2,57.4,111.7c1.3,7.3,6.6,33.4,22,58.3h1.2
	C65,145,59.6,118.8,58.3,111.5z"/>
<path class="st0" d="M42.4,93.6C41.8,46.4,53.4,21.3,67.5,0h-1.2C52.7,20.8,40.9,46.7,41.4,93.6c0.4,28.5,8.6,55.3,20.4,76.4H63
	C51.2,149,42.8,122.1,42.4,93.6z"/>
<path class="st0" d="M367,6.4L367,6.4c7.7,16.9,18.4,44.4,22,87.9c1.8,22.5-9.2,50-30.2,75.7h1.3c20.9-25.8,31.8-53.3,29.9-75.8
	c-3.5-43.6-14.3-71.2-22-88.2c0,0,0,0,0,0c0-0.1-1.1-2.3-3.2-6h-1.1C365.8,4,367,6.4,367,6.4z"/>
<path class="st0" d="M357.8,0.7c14.1,23.8,18.4,44.5,18.4,44.7c0,0,0,0,0,0c15.4,56.2,7.7,82.4-11.9,111c-2.1,3.1-5.6,7.9-10.4,13.6
	h1.3c4.5-5.4,7.8-10,9.9-13c19.8-28.8,27.6-55.2,12.1-111.8c-0.1-0.7-4.5-21.4-18.5-45c0-0.1-0.1-0.1-0.1-0.2h-1.2
	C357.6,0.3,357.7,0.5,357.8,0.7z"/>
<path class="st0" d="M68.6,162.2c-2-3.5-4.1-7.1-6.6-11.1c-9-14.9-14.1-45-12.7-74.9C50.9,43.2,59.8,15.7,74,0h-1.3
	C58.7,16,49.9,43.4,48.3,76.2c-0.7,14.9,0.2,29.9,2.5,43.5c2.3,13.5,5.9,24.5,10.4,32c2.4,4,4.5,7.6,6.5,11.1c1.5,2.6,2.9,5,4.3,7.3
	h1.2C71.7,167.6,70.2,165,68.6,162.2z"/>
<path class="st0" d="M377.2,18.2c-0.2,0.2-0.2,0.5,0.4,2.1c0.3,0.9,0.5,1.3,0.8,1.4c4.1,10.5,16.2,47.9,15.2,85.3
	c-0.7,24.2-10,45.2-23,63.1h1.2c12.9-17.8,22.1-38.8,22.8-63c1-37.7-11.9-78.1-15.8-87.1C378,17,375.3,9.6,370.2,0H369
	C373.3,8.1,375.9,14.6,377.2,18.2z"/>
<path class="st0" d="M46.1,155.2C29.1,100.8,32.6,51.9,56.7,5.8c1-1.9,2.1-3.8,3.3-5.7h-1.2c-1.1,1.8-2.1,3.5-3,5.3
	c-24.2,46.4-27.7,95.5-10.7,150.2c1.5,4.8,3.5,9.7,6,14.5h1.1C49.6,165.1,47.6,160.1,46.1,155.2z"/>
<path class="st0" d="M383.6,170h1.2c8.4-12.3,12.9-23.5,15.2-33.1V132C398.1,142.6,393.5,155.6,383.6,170z"/>
<path class="st0" d="M400,96.2v-9.9c-2.9-24.2-9.5-56-24.5-86.3h-1.1C391.6,34.6,397.8,71.2,400,96.2z"/>
<path class="st0" d="M29.7,107.6l0-4C30.1,74,30.5,36,52.3,0h-1.2c-21.6,36-22,74-22.3,103.6l0,4c-0.2,18.9,5.8,40.8,16.9,62.5h1.1
	C35.6,148.4,29.5,126.4,29.7,107.6z"/>
<path class="st0" d="M28.8,133.8C14,73.1,29.2,28.4,44.6,1.5c0.3-0.5,0.6-1,0.9-1.5h-1.2c-0.2,0.3-0.4,0.6-0.6,1
	c-15.5,27-30.8,72-16,133.1c3.1,12.8,7.1,24.8,12,36h1.1C35.9,158.8,31.9,146.7,28.8,133.8z"/>
<path class="st0" d="M388.2,170h1.2c4.2-6.5,7.7-13.4,10.5-20.6v-2.9C397,154.8,393.1,162.6,388.2,170z"/>
<path class="st0" d="M400,53.5v-3.6c-5.7-19-13.4-36.1-20.8-49.9H378C385.9,14.6,394.2,33,400,53.5z"/>
<path class="st0" d="M393.9,170h1.2c1.8-2.9,3.4-5.8,4.9-8.8V159C398.1,162.8,396.1,166.4,393.9,170z"/>
<path class="st0" d="M14.8,129.9c-5.5-26.8-5-54.7,1.5-83c4-17.6,10.7-33.2,19-46.9h-1.2c-8.7,14.5-15,30.1-18.8,46.6
	c-6.5,28.4-7,56.5-1.5,83.4c2.8,13.8,7.2,27.2,13,40H28C22.1,157.2,17.7,143.8,14.8,129.9z"/>
<path class="st0" d="M400,34.8V32c-4.2-10.6-9.4-21.3-15.3-32h-1.1C390,11.6,395.5,23.3,400,34.8z"/>
<path class="st0" d="M400,25.8v-2.5c-3.6-8.1-7.6-15.9-11.7-23.3h-1.1C391.6,8.2,396,16.8,400,25.8z"/>
<path class="st0" d="M15.6,26.9c3-8.4,7.1-17.5,12.3-26.9h-1.1c-5.2,9.2-9.1,18.2-12.1,26.5C-1.9,72.5,0.3,124.6,20,170h1.1
	C1.3,124.7-0.9,72.7,15.6,26.9z"/>
<path class="st0" d="M18.9,1.9c0.4-0.6,0.8-1.2,1.2-1.9h-1.2c-0.3,0.4-0.6,0.9-0.8,1.3C10,14.3,4,28.2,0,42.8v3.9
	C3.9,30.8,10.2,15.8,18.9,1.9z"/>
<path class="st0" d="M5.6,149.3c-2.2-6.9-4.1-13.8-5.6-20.7v4.4c1.3,5.5,2.9,11,4.7,16.6c2.2,6.9,4.8,13.7,7.7,20.4h1.2
	C10.4,162.9,7.7,155.9,5.6,149.3z"/>
<path class="st0" d="M400,9.4V7.1c-1.2-2.5-2.3-4.8-3.5-7h-1.1C396.9,2.9,398.4,6,400,9.4z"/>
<path class="st0" d="M11,0H9.9C6,8,2.7,16.2,0,24.7v3.4C2.9,18.4,6.6,9,11,0z"/>
<path class="st0" d="M0,154.8v3.5c1.2,4,2.5,7.8,3.9,11.7h1.1C3.1,165.1,1.4,160,0,154.8z"/>
</svg>
