<?xml version="1.0" encoding="utf-8"?>
<!-- Generator: Adobe Illustrator 24.1.2, SVG Export Plug-In . SVG Version: 6.00 Build 0)  -->
<svg version="1.1" id="Layer_1" xmlns="http://www.w3.org/2000/svg" xmlns:xlink="http://www.w3.org/1999/xlink" x="0px" y="0px"
	 viewBox="0 0 270 80" style="enable-background:new 0 0 270 80;" xml:space="preserve">
<style type="text/css">
	.st0{fill:#8FBC8F;}
</style>
<g>
	<path class="st0" d="M43.9,13c13.9,0,30.3-3,46.2-13h-1.9C63.6,14.7,38.1,13,22.7,9.7C15.3,8.1,7.6,6.1,0,2.5v1.1
		c7.5,3.4,15.1,5.4,22.4,7C28.4,11.9,35.7,13,43.9,13z"/>
	<path class="st0" d="M38.6,24c21,0,46.2-6.3,68.1-24h-1.6c-29,22.8-63.5,26-86,21C13.6,19.8,7,18,0,15.3v1.1
		C6.9,19,13.4,20.8,18.9,22C24.8,23.3,31.4,24,38.6,24z"/>
	<path class="st0" d="M37.8,33.2c36.1,0,63.5-15.9,82.6-33.2h-1.5C97.2,19.3,65.1,36.6,21.8,31.2c-7.9-1-15.2-2.7-21.8-5v1.1
		c6.6,2.2,13.8,3.9,21.7,4.9C27.3,32.9,32.6,33.2,37.8,33.2z"/>
	<path class="st0" d="M46,39.1c20-1.1,39-7,53.7-16.5c10.6-6.8,20.2-14.4,28.9-22.6h-1.5c-8.4,7.9-17.8,15.2-28,21.8
		C71.9,39.4,31.1,43.1,0,31.6v1.1c11.8,4.3,25.1,6.6,38.9,6.6C41.3,39.3,43.6,39.2,46,39.1z"/>
	<path class="st0" d="M37.7,47.7c24.8,0,48.7-7.9,71.2-23.5C120,16.5,130,8.4,138.7,0h-1.5c-8.5,8.1-18.1,15.9-28.9,23.4
		C82.4,41.4,54.6,49,25.7,46.1C16,45.1,7.4,43,0,40.6v1.1c7.4,2.4,16,4.4,25.5,5.4C29.6,47.5,33.7,47.7,37.7,47.7z"/>
	<path class="st0" d="M36.8,54.1c35.1,0,71.2-16.5,103.6-47.9c2.2-2.1,4.3-4.2,6.3-6.3h-1.4c-1.8,1.8-3.7,3.7-5.6,5.5
		C107.4,36.7,71.6,53.1,36.8,53.1c-7,0-14-0.7-20.9-2C9.6,49.8,4.4,48.8,0,47.7v1c4.3,1,9.4,2.1,15.7,3.3
		C22.6,53.4,29.7,54.1,36.8,54.1z"/>
	<path class="st0" d="M38.7,58.4c26.1-1.1,51.5-8.9,69.8-21.3c14.1-9.6,30.8-21.8,45.5-37.2h-1.4c-14.5,14.9-30.9,26.9-44.7,36.3
		C89.9,48.7,64.6,56.4,38.7,57.4C27.9,57.9,14.5,57.3,0,53.9v1c11.8,2.7,22.9,3.6,32.4,3.6C34.6,58.6,36.7,58.5,38.7,58.4z"/>
	<path class="st0" d="M34.2,62.7c36.2,0,70.1-11.9,115.6-51.7c4.1-3.6,8-7.3,11.5-11.1h-1.4c-3.4,3.5-7,6.9-10.8,10.3
		C92.7,59.7,54.2,65.8,6.8,59.8c-2.2-0.3-4.5-0.7-6.8-1.1v1c2.3,0.5,4.5,0.8,6.7,1.1C16.1,62,25.2,62.7,34.2,62.7z"/>
	<path class="st0" d="M126.3,34.9c16.5-12.3,30-23.7,40.9-34.9h-1.4c-10.7,10.9-24,22.1-40.1,34.1C93,58.5,61.8,67.2,33.4,67.2
		c-11.6,0-22.7-1.5-33.3-3.9v1c10.6,2.4,21.7,3.9,33.3,3.9C62,68.2,93.4,59.4,126.3,34.9z"/>
	<path class="st0" d="M178.3,2.2c0.6-0.7,1.2-1.5,1.8-2.2h-1.3c-0.4,0.5-0.9,1-1.3,1.6c-17.1,20.5-48.4,49.2-100.2,70
		C68,75.3,59.1,78.1,50.8,80H55c7.2-1.8,14.7-4.3,22.6-7.5C129.7,51.6,161.1,22.7,178.3,2.2z"/>
	<path class="st0" d="M72.7,68C124.3,53.3,158.4,20.3,175.3,0H174c-17,20.3-50.7,52.6-101.5,67.1c-12.3,3.5-25.3,5.2-38.6,5.2
		c-11.1,0-22.5-1.2-33.8-3.6v1c11.3,2.3,22.7,3.5,33.8,3.5C47.3,73.3,60.4,71.6,72.7,68z"/>
	<path class="st0" d="M191.9,0h-1.2c-22.4,30.5-55.7,51.8-75.6,64.5c-9.4,6-20.4,11.2-32.4,15.5h2.9c11-4.1,21.3-9.1,30-14.6
		C135.6,52.5,169.4,31,191.9,0z"/>
	<path class="st0" d="M204.8,0h-1.2c-14.8,21.4-41.5,46-88.6,70.6c-6.7,3.5-13.4,6.6-19.9,9.4h2.6c5.9-2.5,11.8-5.4,17.8-8.5
		C163.2,46.6,190,21.6,204.8,0z"/>
	<path class="st0" d="M195.4,17.7c5.3-5.6,10-11.5,14-17.8h-1.2c-3.9,6-8.4,11.7-13.6,17.1c-29.4,30.8-58,50.5-84.1,62.9h2.1
		C141.7,65.8,169.5,45,195.4,17.7z"/>
	<path class="st0" d="M215.1,0h-1.2c-8,13-18.6,25-31.4,36c-22,18.7-42.3,33.2-61.6,44h2c18.9-10.7,38.7-25,60.2-43.3
		C196.3,25.5,206.9,13.2,215.1,0z"/>
	<path class="st0" d="M207.5,21.7c5.6-7,10.4-14.2,14.5-21.7h-1.1c-4,7.3-8.7,14.3-14.1,21.1C189.4,42.7,165,62.2,132.6,80h2.1
		C166.4,62.3,190.4,43.1,207.5,21.7z"/>
	<path class="st0" d="M226.7,0h-1.1c-11.5,22-29,41.7-52.2,58.7c-10.8,7.9-21.5,15-32.1,21.3h2c10.2-6.1,20.4-13,30.7-20.5
		C197.5,42.2,215.2,22.3,226.7,0z"/>
	<path class="st0" d="M207.3,38C217.4,26.1,225.6,13.4,232,0h-1.1c-6.3,13.2-14.4,25.7-24.3,37.4c-13.6,16-30.5,30.4-49.9,42.6h1.9
		C177.5,67.9,194,53.7,207.3,38z"/>
	<path class="st0" d="M234.5,6.4c1-2.1,2.1-4.2,3.1-6.5h-1.1c-0.9,2.1-1.9,4.1-2.9,6c-16,31.9-36.8,49.7-37,49.9
		c-0.2,0.1-11.3,11-31.2,24.1h1.8c19.1-12.8,29.9-23.2,30-23.4C197.5,56.4,218.4,38.5,234.5,6.4z"/>
	<path class="st0" d="M209.9,51.6c15.2-15.7,27-33,35.1-51.7h-1.1c-8.1,18.4-19.7,35.5-34.8,51c-10.2,10.5-21.5,20.2-33.7,29h1.7
		C189,71.4,200,61.9,209.9,51.6z"/>
	<path class="st0" d="M243.9,12.6c2.5-4.2,4.7-8.4,6.7-12.6h-1.1c-1.9,4.1-4.1,8.1-6.5,12.1c-16.4,27.6-35.5,50.1-57.7,67.9h1.6
		C208.8,62.2,227.6,39.9,243.9,12.6z"/>
	<path class="st0" d="M251.5,9.5c1.5-3.2,2.9-6.4,4.2-9.5h-1.1c-1.2,3-2.5,6-4,9.1c-13,27.7-31.8,51.5-56.1,70.9h1.6
		C220,60.6,238.6,37,251.5,9.5z"/>
</g>
</svg>
