<?xml version="1.0" encoding="utf-8"?>
<!-- Generator: Adobe Illustrator 24.1.2, SVG Export Plug-In . SVG Version: 6.00 Build 0)  -->
<svg version="1.1" id="Layer_1" xmlns="http://www.w3.org/2000/svg" xmlns:xlink="http://www.w3.org/1999/xlink" x="0px" y="0px"
	 viewBox="0 0 240 80" style="enable-background:new 0 0 240 80;" xml:space="preserve">
<style type="text/css">
	.st0{fill:#8FBC8F;}
</style>
<g>
	<path class="st0" d="M3.1,80c0.5-0.1,1.1-0.2,1.6-0.3c5.5-1.1,10.9-1.6,16.1-1.6c5.7,0,11.3,0.6,16.7,1.9h4
		C30,76.6,17.6,76.1,4.5,78.7c-1.5,0.3-3,0.6-4.5,1V80H3.1z"/>
	<path class="st0" d="M17.5,69c11.2,0,22.4,1.3,33.3,3.1c6.6,1.1,13.1,4,19.2,7.9h1.8c-6.6-4.4-13.7-7.7-20.9-8.9
		C34.3,68.4,17.2,66.8,0,69.2v1C5.8,69.4,11.7,69,17.5,69z"/>
	<path class="st0" d="M20.9,57.2c1.4,0,2.7-0.1,4-0.1c32.1,0,52.8,11.6,64.7,21.5c0.5,0.4,1.1,0.9,1.6,1.3h1.5
		c-0.8-0.7-1.6-1.4-2.4-2.1C77.8,67.4,55.6,55.2,20.9,56.2c-7.3,0.2-14.3,0.9-20.9,2v1C6.6,58.1,13.6,57.4,20.9,57.2z"/>
	<path class="st0" d="M1.8,52.9c8.3-0.9,15.9-1.5,23.3-1.5c15,0,29.3,2.4,47.2,9.1C85.4,65.3,94.8,73.2,101,80h1.3
		c-6.3-7-16-15.3-29.7-20.4c-27-10.1-45.8-10.4-71-7.6c-0.4,0-1,0.1-1.7,0.2v1C0.8,53,1.4,53,1.8,52.9z"/>
	<path class="st0" d="M21.7,46.8c12.5,0,22.5,2,32.4,3.9c2,0.4,4.1,0.8,6.2,1.2c21.4,4,41.1,18.2,47.9,28h1.2
		c-6.6-10-26.9-24.9-48.9-29c-2.1-0.4-4.1-0.8-6.2-1.2c-15.1-3-30.6-6-54.3-2.1v1C8.1,47.3,15.2,46.8,21.7,46.8z"/>
	<path class="st0" d="M4.1,39.8c6.5-0.8,13.5-1.4,20.9-1.4c21.3,0,46.1,4.9,71.4,24.4c6.8,5.2,12.4,11.5,16.7,17.1h1.3
		C110,74.2,104.1,67.5,97,62.1C78.9,48.1,52,32.9,4,38.8C2.6,39,1.3,39.2,0,39.4v1C1.4,40.2,2.7,40,4.1,39.8z"/>
	<path class="st0" d="M23.1,34.8c14.8,0,29,2,41.6,5.9c34.9,11.2,49.5,29,57.4,39.2h1.3C115.5,69.8,101,51.3,65,39.8
		c-19.2-6-41.9-7.5-65-4.4v1C7.8,35.3,15.5,34.8,23.1,34.8z"/>
	<path class="st0" d="M15.9,28c1.1,0,2.3,0,3.5,0C57.4,28.8,83.2,40.4,98.2,50c16.2,10.4,23.6,20.8,23.6,20.9c0,0,0,0,0,0
		c0,0,2.6,3.2,6.5,9h1.2c-4-6.1-6.7-9.4-6.9-9.7c-0.4-0.5-7.8-10.8-23.8-21.1C83.7,39.5,57.7,27.8,19.3,27c-6.5-0.1-13,0.1-19.3,0.8
		v1C5.2,28.2,10.5,28,15.9,28z"/>
	<path class="st0" d="M16.4,20.9c21.3,0,42.6,3.9,62.7,11.7c27.7,10.7,44.5,28.6,56,47.4h1.2c-11.5-19.1-28.5-37.4-56.8-48.3
		C54.1,21.9,26.9,18.1,0,20.7v1C5.5,21.2,11,20.9,16.4,20.9z"/>
	<path class="st0" d="M22.3,13.2c12.9,0,25.7,1.5,38.3,4.6c36.9,9,61.3,34.3,75.2,53.9c2,2.8,3.8,5.6,5.5,8.3h1.2
		c-1.8-2.9-3.8-5.8-5.9-8.8C122.6,51.4,98,26,60.9,16.9C40.9,12,20.6,10.9,0,13.7v1C7.5,13.7,14.9,13.2,22.3,13.2z"/>
	<path class="st0" d="M32.6,3.7c44.6,0,76.1,22.4,94.6,41.3c13.3,13.5,22.1,27.2,26.5,34.9h1.1c-4.3-7.7-13.2-21.7-26.9-35.6
		c-18.7-19-50.4-41.6-95.3-41.6C21.2,2.7,10.3,3.5,0,4.9v1C10.5,4.5,21.4,3.7,32.6,3.7z"/>
	<path class="st0" d="M23.6,8.5c16,0,31.2,2.4,45.5,7.2c41.1,13.8,65.3,42.4,78.3,64.3h1.2c-13.1-22.1-37.4-51.2-79.2-65.2
		C48.1,7.6,24.6,5.7,0,9.1v1C8,9,15.9,8.5,23.6,8.5z"/>
	<path class="st0" d="M67.8,3.1c40.1,12.9,65.1,38.4,79,57.5c5.1,6.9,9.1,13.6,12.2,19.4h1.2c-3.1-5.9-7.2-12.6-12.3-19.6
		c-14-19.3-39.3-45.1-79.8-58.2c-2.4-0.8-4.9-1.5-7.4-2.2h-4.2C60.4,0.9,64.1,1.9,67.8,3.1z"/>
	<path class="st0" d="M126,28.2C126.1,28.2,126.1,28.2,126,28.2c16.7,15.4,29.1,33.3,38.3,51.8h1.1c-9.3-18.7-21.8-36.9-38.7-52.5
		c-0.7-0.8-12.9-16-37.5-27.5h-2.4C113.2,11.8,125.9,28,126,28.2z"/>
	<path class="st0" d="M114.3,11.7c15.1,10.9,33.9,33.9,49.1,60.1c1.5,2.6,3,5.3,4.6,8.2h1.1c-1.7-3.1-3.3-6-4.9-8.7
		c-15.3-26.3-34.2-49.4-49.4-60.4C110,7.3,104.2,3.5,97.6,0h-2.1C102.7,3.8,109,7.8,114.3,11.7z"/>
	<path class="st0" d="M140.7,32.2c12.7,15.5,23.7,31.6,32.8,47.8h1.1c-9.2-16.4-20.3-32.6-33.2-48.4C131,18.8,119.2,8.3,106,0h-1.9
		C117.7,8.3,129.9,19.1,140.7,32.2z"/>
	<path class="st0" d="M132.5,16.5C132.5,16.5,132.5,16.5,132.5,16.5c0.4,0.4,24.2,26.9,44.7,63.4h1.1c-20.5-36.7-44.4-63.4-45-64.1
		c-2.9-3.6-9-9.6-18.2-15.9h-1.8C123,6.6,129.5,12.9,132.5,16.5z"/>
	<path class="st0" d="M141.5,16c21.3,21.5,31.8,42.9,31.9,43.1c0,0,0,0,0,0.1c0.1,0.2,5.4,7.9,12,20.8h1.1
		c-6.6-12.9-11.9-20.7-12.3-21.3c-0.5-1-11-22.1-32-43.3c-4.9-5-10.7-10.2-17.3-15.3h-1.7C130.3,5.3,136.4,10.8,141.5,16z"/>
	<path class="st0" d="M177.6,50c6.5,10.1,11.9,20.2,16.3,29.9h1.1c-4.5-9.9-9.9-20.2-16.5-30.4C165.7,29.7,150.4,13.1,132.9,0h-1.7
		C149.1,13.1,164.6,29.9,177.6,50z"/>
	<path class="st0" d="M198.5,80h1.1c-15.1-34.5-33.8-61-56.7-80h-1.6C164.4,18.9,183.3,45.3,198.5,80z"/>
	<path class="st0" d="M202.8,80h1.1c-12.6-29.2-28.7-57.7-53.4-80H149C174,22.2,190.1,50.6,202.8,80z"/>
	<path class="st0" d="M189.4,43.1c1.1,2.2,2.5,4.9,4.2,8.1c3.8,7.3,9,17.1,14.3,28.7h1.1c-5.4-11.9-10.6-21.8-14.5-29.2
		c-1.7-3.2-3.1-6-4.2-8.1c-6.1-12.4-16-27.9-31.8-42.7H157C173.2,14.9,183.2,30.6,189.4,43.1z"/>
	<path class="st0" d="M197.4,49l3.1,5.4c4.8,8.4,9.1,17,12.9,25.6h1.1c-3.9-8.8-8.2-17.5-13.1-26.1l-3.1-5.4
		C186.9,28.6,177.9,13,166.4,0H165C176.8,13.1,185.8,28.8,197.4,49z"/>
</g>
</svg>
