<?xml version="1.0" encoding="utf-8"?>
<!-- Generator: Adobe Illustrator 24.1.2, SVG Export Plug-In . SVG Version: 6.00 Build 0)  -->
<svg version="1.1" id="Layer_1" xmlns="http://www.w3.org/2000/svg" xmlns:xlink="http://www.w3.org/1999/xlink" x="0px" y="0px"
	 viewBox="0 0 250 70" style="enable-background:new 0 0 250 70;" xml:space="preserve">
<style type="text/css">
	.st0{fill:#8FBC8F;}
</style>
<g>
	<path class="st0" d="M250,68.5v-1c-4.3,0.7-8.5,1.5-12.8,2.5h4.8C244.6,69.4,247.3,68.9,250,68.5z"/>
	<path class="st0" d="M250,61.1v-1c-13.5,2.5-26.1,6-37.4,9.9h3.1C226.2,66.5,237.7,63.3,250,61.1z"/>
	<path class="st0" d="M250,53.9v-1c-18.3,3-37.1,8.7-56.1,17.1h2.5C214.5,62.1,232.4,56.7,250,53.9z"/>
	<path class="st0" d="M204.1,61.4C204.1,61.4,204.1,61.4,204.1,61.4c12.2-3.7,28-8,45.9-10.6v-1c-18,2.6-33.9,7-46.2,10.7h0
		c-5.3,1.6-14.1,4.6-25,9.5h2.8C192.9,65,201.2,62.3,204.1,61.4z"/>
	<path class="st0" d="M188.3,61.4C205.9,55,227.1,49,250,45.8v-1.1c-19.8,2.7-40.6,8-62,15.8c-8.1,2.9-15.6,6.1-22.8,9.5h2.3
		C174.1,66.9,181,64.1,188.3,61.4z"/>
	<path class="st0" d="M171.6,58.7c22.8-9.7,48.4-15.5,78.4-17.8v-1c-30.2,2.3-55.8,8.2-78.8,17.9c-8.3,3.5-16.3,7.6-24,12.2h1.9
		C156.4,65.7,163.8,61.9,171.6,58.7z"/>
	<path class="st0" d="M250,35.9v-1c-50.3,4.3-88.1,18-116.3,35.1h1.9C163.5,53.4,200.8,40,250,35.9z"/>
	<path class="st0" d="M204.8,33.5c17.1-3.3,32.8-4.5,45.2-4.9v-1c-12.5,0.3-28.1,1.6-45.3,4.9c-26.1,5-59.4,15.5-90.3,37.4h1.8
		C146.5,48.7,179.2,38.4,204.8,33.5z"/>
	<path class="st0" d="M164.1,36.3c31.7-11.3,57.6-12,63.3-12c0.7,0,1.1,0,1.2,0c0,0,0,0,0,0c7.3-0.5,14.4-0.7,21.3-0.9v-1
		c-7,0.1-14.1,0.4-21.4,0.9c-1,0-29.2-0.6-64.7,12c-18,6.4-39.8,17.1-61.4,34.6h1.6C125.2,53,146.5,42.6,164.1,36.3z"/>
	<path class="st0" d="M105.1,57.2c36.7-27.1,67.1-33.3,91.5-38.4c4.2-0.9,8.2-1.7,11.9-2.6c6.3-1.5,13.1-2,19.8-2
		c7.8,0,15.4,0.8,21.6,1.7v-1c-11.6-1.7-27.8-2.9-41.6,0.4c-3.7,0.9-7.7,1.7-11.9,2.6c-23.2,4.8-55,11.4-91.9,38.6
		c-5.2,3.9-10.6,8.4-16,13.5H90C95.1,65.2,100.2,60.9,105.1,57.2z"/>
	<path class="st0" d="M143.6,29.2c2-1.1,3.9-2.1,5.7-3.1C173,13,199.8,10.9,221.4,10.9c5.6,0,10.9,0.1,15.7,0.3
		c4.9,0.1,9.3,0.2,12.9,0.2v-1c-3.7,0.1-8,0-12.9-0.2c-23.1-0.6-58.1-1.6-88.3,15.1c-1.8,1-3.7,2-5.7,3.1
		C123.5,39.1,94.6,55,77.7,69.9h1.5C96.1,55.3,124.3,39.8,143.6,29.2z"/>
</g>
</svg>
