<?xml version="1.0" encoding="utf-8"?>
<!-- Generator: Adobe Illustrator 24.1.2, SVG Export Plug-In . SVG Version: 6.00 Build 0)  -->
<svg version="1.1" id="Layer_1" xmlns="http://www.w3.org/2000/svg" xmlns:xlink="http://www.w3.org/1999/xlink" x="0px" y="0px"
	 viewBox="0 0 260 80" style="enable-background:new 0 0 260 80;" xml:space="preserve">
<style type="text/css">
	.st0{fill:#8FBC8F;}
</style>
<g>
	<path class="st0" d="M260,79.7c-0.5,0.1-0.9,0.2-1.4,0.3h1.4V79.7z"/>
	<path class="st0" d="M260,70.2v-1c-11.2,1.6-22.3,4.9-33.3,10.8h2.1C239.1,74.7,249.5,71.7,260,70.2z"/>
	<path class="st0" d="M260,59.3v-1c-21.8,3.7-39.5,11.8-53.3,21.7h1.7C221.8,70.6,239,62.8,260,59.3z"/>
	<path class="st0" d="M260,53.2v-1c-8.5,1.2-38.4,6.7-64.2,27.8h1.6C222.6,59.8,251.5,54.4,260,53.2z"/>
	<path class="st0" d="M231.7,55.8c10.7-3.4,20-5.7,28.2-7.1v-1c-8.4,1.4-17.8,3.7-28.6,7.1c-17.1,5.5-31.8,14.5-43.8,25.2h1.5
		C200.8,69.8,215.2,61.1,231.7,55.8z"/>
	<path class="st0" d="M260,40.4v-1c-36.4,5.2-65.1,18.8-85.6,40.6h1.4C196.1,58.7,224.3,45.5,260,40.4z"/>
	<path class="st0" d="M228.8,43.2c10.3-3.2,20.8-5.4,31.2-6.8v-1c-10.5,1.4-21.1,3.7-31.5,6.9c-27.1,8.3-49.9,22.1-63.2,37.8h1.3
		C179.9,64.7,202.3,51.4,228.8,43.2z"/>
	<path class="st0" d="M173,67.5c24.1-22,54.4-35.4,87-38.7v-1c-32.9,3.3-63.5,16.8-87.7,39c-4.6,4.2-8.8,8.6-12.8,13.2h1.3
		C164.6,75.6,168.6,71.5,173,67.5z"/>
	<path class="st0" d="M163,64.4c22.1-20.6,50.2-34.6,81.3-40.5c5.2-1,10.4-1.7,15.7-2.2v-1c-5.3,0.5-10.6,1.2-15.9,2.2
		c-31.3,5.9-59.5,20-81.8,40.7c-5.8,5.4-10.9,10.8-15.5,16.3h1.3C152.6,74.8,157.5,69.6,163,64.4z"/>
	<path class="st0" d="M147.7,65.6C165.1,53,191.9,34.9,223,23.8c12.4-4.4,24.7-7.4,37-9.1v-1c-12.4,1.7-24.8,4.7-37.3,9.1
		c-31.3,11.1-58.1,29.2-75.5,41.9c-5.8,4.2-10.9,9.4-15.3,15.2h1.3C137.3,74.5,142.2,69.6,147.7,65.6z"/>
	<path class="st0" d="M122.8,72.3C137.5,51.6,190.2,15.1,260,5.9v-1c-33.3,4.3-60.4,14.5-79,23.4c-19.8,9.5-47.1,26.6-59.1,43.5
		c-1.9,2.7-3.8,5.4-5.6,8.2h1.2C119.2,77.4,121,74.9,122.8,72.3z"/>
	<path class="st0" d="M126,77.9c16.6-16.4,47.4-39.3,84.4-54.2c16.9-6.8,33.5-11.3,49.6-13.6v-1c-16.3,2.3-33,6.8-50,13.6
		c-37.1,14.9-68.1,37.9-84.7,54.4c-0.9,0.9-1.8,1.8-2.6,2.8h1.3C124.7,79.3,125.3,78.6,126,77.9z"/>
	<path class="st0" d="M196.3,14.2C211.6,7.8,226.9,3,242,0h-4.8c-13.6,3-27.5,7.5-41.3,13.3c-38.8,16.3-71.4,41.5-87,66.7h1.2
		C125.6,55.1,158,30.3,196.3,14.2z"/>
	<path class="st0" d="M204.3,4c3.6-1.4,7.4-2.7,11.3-4h-3.1c-2.9,1-5.8,2-8.6,3.1C149.1,23.9,118.3,51.3,101.1,80h1.2
		C119.5,51.7,150,24.6,204.3,4z"/>
	<path class="st0" d="M131.9,37.3L131.9,37.3C153.7,21.6,175.2,9.1,196.4,0h-2.5c-20.5,9.1-41.4,21.2-62.6,36.5h0
		c-0.2,0.1-20.3,14.9-37,43.5h1.2C112,51.9,131.7,37.4,131.9,37.3z"/>
	<path class="st0" d="M181.6,0h-2.8c-14.7,6.6-33.1,16.6-51.4,31.4C109.4,45.9,95,62.2,84.2,80h1.2C111.9,36.2,154.9,11.7,181.6,0z"
		/>
	<path class="st0" d="M167.6,0h-2.3c-46,21.8-72.8,52.1-88.4,80h1.1C93.7,52,120.9,21.6,167.6,0z"/>
	<path class="st0" d="M149.2,0h-1.9c-30.1,18-55.9,44.4-78.3,80h1.2C92.7,44.2,118.7,17.8,149.2,0z"/>
	<path class="st0" d="M81,47.8c12.2-15.7,29.7-33,54.6-47.8h-1.9c-24.2,14.6-41.4,31.7-53.4,47.2C72.3,57.4,65.5,68.4,59.9,80H61
		C66.5,68.6,73.2,57.9,81,47.8z"/>
	<path class="st0" d="M74.9,38.8C87.4,22.9,101.5,10.2,116.1,0h-1.8c-14.2,10.1-27.9,22.6-40.2,38.1c-10.3,13-18.8,27-25.4,41.9h1
		C56.3,65.5,64.7,51.7,74.9,38.8z"/>
	<path class="st0" d="M51.7,61.7C67.2,34.9,85.5,14.9,104.1,0h-1.6C84.2,14.9,66.1,34.7,50.8,61.2C47.2,67.5,44,73.8,41.1,80h1.1
		C45,73.9,48.2,67.8,51.7,61.7z"/>
	<path class="st0" d="M43.2,58.1C56.8,36,73.6,15.4,90,0h-1.5C72.3,15.4,55.8,35.8,42.4,57.5c-4.7,7.6-8.9,15.1-12.5,22.5H31
		C34.5,72.8,38.6,65.5,43.2,58.1z"/>
	<path class="st0" d="M74.8,4.1c1.4-1.4,2.9-2.7,4.5-4.1h-1.5c-1.3,1.1-2.5,2.3-3.7,3.4c-7.1,7-34.7,36-53,76.6h1.1
		C40.4,39.8,67.7,11.1,74.8,4.1z"/>
</g>
</svg>
