<?xml version="1.0" encoding="utf-8"?>
<!-- Generator: Adobe Illustrator 24.1.2, SVG Export Plug-In . SVG Version: 6.00 Build 0)  -->
<svg version="1.1" id="Layer_1" xmlns="http://www.w3.org/2000/svg" xmlns:xlink="http://www.w3.org/1999/xlink" x="0px" y="0px"
	 viewBox="0 0 240 70" style="enable-background:new 0 0 240 70;" xml:space="preserve">
<style type="text/css">
	.st0{fill:#8FBC8F;}
</style>
<g>
	<path class="st0" d="M0,3.2v1C7.9,3.6,16.2,2.3,25,0h-4.3C13.5,1.7,6.6,2.7,0,3.2z"/>
	<path class="st0" d="M16.1,9.3c-5.4,0.8-10.8,1.4-16,1.8v1c5.3-0.4,10.7-1,16.2-1.8C29.7,8.2,43.1,4.7,55.6,0h-2.9
		C41,4.2,28.6,7.4,16.1,9.3z"/>
	<path class="st0" d="M0,15.7v1C22.2,15.5,44.5,10,67.6,0H65C42.9,9.4,21.4,14.5,0,15.7z"/>
	<path class="st0" d="M0,20.8v1c13.4-0.7,29.7-2.9,48.2-8.3C59.9,10,71.4,5.6,82.7,0h-2.1C48.9,15.2,21,19.7,0,20.8z"/>
	<path class="st0" d="M43.4,19.8c-14.6,3.9-28.8,5.7-43.4,6v1c14.7-0.3,29-2.1,43.7-6C59.7,16.5,75.9,9.7,92.9,0h-2
		C74.5,9.2,58.9,15.7,43.4,19.8z"/>
	<path class="st0" d="M66,18c-20.4,9-43,14.1-66,15.4v1c23.2-1.2,45.9-6.4,66.4-15.4C80.2,12.8,93,6.5,104.7,0h-2.1
		C91.4,6.2,79.2,12.2,66,18z"/>
	<path class="st0" d="M0,38.5v1C36.6,36.7,74.5,23.5,113.3,0h-2C73.2,22.8,35.9,35.7,0,38.5z"/>
	<path class="st0" d="M82.2,22.5C55.9,32.8,27.6,39.5,0,42v1c27.7-2.5,56.2-9.2,82.6-19.6C99.1,16.9,114.5,9,128.5,0h-1.9
		C113,8.6,98.1,16.2,82.2,22.5z"/>
	<path class="st0" d="M108.3,16C82.5,29.4,45,44,0,47.1v1C45.2,45,82.9,30.4,108.8,16.9c10.8-5.6,20.4-11.5,28.4-16.8h-1.8
		C127.7,5.2,118.6,10.7,108.3,16z"/>
	<path class="st0" d="M90.2,30.8C61.8,42.4,31.6,49.5,0,51.8v1c31.7-2.4,62-9.4,90.6-21.2c20.2-8.3,39.3-19,56.6-31.6h-1.7
		C128.5,12.3,109.9,22.7,90.2,30.8z"/>
	<path class="st0" d="M118.4,24C86.7,40.2,50,50.1,0,55.8v1c50.2-5.7,87-15.6,118.8-32c13.6-7,26.3-15.2,38.1-24.8h-1.6
		C143.9,9.2,131.6,17.2,118.4,24z"/>
	<path class="st0" d="M147,12.6C112.1,35.3,71.8,50.2,27.2,57C18.3,58.4,9.2,59.4,0,60.1v1c9.2-0.7,18.4-1.7,27.4-3.1
		c44.7-6.9,85.1-21.8,120.1-44.6C154,9.2,160.2,4.8,166,0h-1.6C158.9,4.5,153.1,8.7,147,12.6z"/>
</g>
</svg>
