<?xml version="1.0" encoding="utf-8"?>
<!-- Generator: Adobe Illustrator 24.1.2, SVG Export Plug-In . SVG Version: 6.00 Build 0)  -->
<svg version="1.1" id="Layer_1" xmlns="http://www.w3.org/2000/svg" xmlns:xlink="http://www.w3.org/1999/xlink" x="0px" y="0px"
	 viewBox="0 0 260 70" style="enable-background:new 0 0 260 70;" xml:space="preserve">
<style type="text/css">
	.st0{fill:#8FBC8F;}
</style>
<g>
	<path class="st0" d="M222.7,0h-3.9c9.7,2.8,20.3,4.5,32.1,4.5c3,0,6-0.1,9.1-0.3v-1C246.2,4.2,233.8,2.8,222.7,0z"/>
	<path class="st0" d="M204.6,4.4c-3.4-1.3-6.8-2.8-10.2-4.4H192c4.1,1.9,8.2,3.7,12.2,5.3c12.3,4.8,27.3,7.3,43.7,7.3
		c3.9,0,8-0.2,12.1-0.4v-1C239.1,12.6,219.8,10.3,204.6,4.4z"/>
	<path class="st0" d="M249.7,15.9c-23.6-0.2-47.2-5.4-72.1-15.8H175c25.8,11.1,50.3,16.7,74.7,16.8c0.4,0,0.9,0,1.3,0
		c3,0,6-0.1,9-0.3v-1C256.6,15.8,253.1,15.9,249.7,15.9z"/>
	<path class="st0" d="M232.7,20.7l-2-0.1c-6-0.3-35.6-2.4-68.3-20.6h-2c33.4,19.1,64.2,21.3,70.2,21.6l1.9,0.1
		c4.1,0.2,9.3,0.4,15.3,0.4c3.7,0,7.7-0.1,12-0.3v-1C248.7,21.4,239.5,21,232.7,20.7z"/>
	<path class="st0" d="M202.7,21.3c-18.5-2.7-37.3-10.2-54.9-21.3h-1.9c18.1,11.7,37.5,19.5,56.6,22.3c18.6,2.7,35.8,4.6,52.5,4.6
		c1.7,0,3.3,0,5-0.1v-1C241.8,26.2,223.1,24.3,202.7,21.3z"/>
	<path class="st0" d="M192.4,25.6c-19.9-5.8-38.3-14.4-54.8-25.6h-1.8c16.9,11.6,35.9,20.6,56.3,26.5c18.6,5.4,37.9,8.1,57.1,8.1
		c3.6,0,7.2-0.1,10.8-0.3v-1C237.5,34.5,214.4,32,192.4,25.6z"/>
	<path class="st0" d="M225.6,38.1C181,33.5,147.3,13.6,125.9,0H124c21.5,13.7,55.7,34.3,101.5,39.1c6.4,0.7,12.8,1,19.3,1
		c5,0,10.1-0.2,15.2-0.6v-1C248.4,39.4,236.9,39.3,225.6,38.1z"/>
	<path class="st0" d="M232,43c-24.5-0.5-63.4-8.6-99.3-30c-6.7-4-13.1-8.3-19.1-13H112c6.4,5,13.1,9.6,20.2,13.9
		c36,21.5,75.2,29.6,99.8,30.1c1.5,0,3.1,0,4.7,0c7.7,0,15.5-0.4,23.3-1.1v-1C250.5,42.8,241.2,43.2,232,43z"/>
	<path class="st0" d="M216.6,46.3C170.5,41.5,132,25.9,102.1,0h-1.5c30.2,26.5,69.1,42.4,116,47.3c8.9,0.9,17.7,1.4,26.2,1.4
		c5.9,0,11.6-0.2,17.3-0.6v-1C246.2,48,231.7,47.9,216.6,46.3z"/>
	<path class="st0" d="M232.5,52.7C161.3,51.9,118.6,23.9,91.8,0h-1.3C102,10.4,115.2,20.4,131,29c29.7,16.2,62.9,24.3,101.5,24.7
		c1.2,0,2.4,0,3.6,0c8,0,16-0.3,23.9-0.9v-1C250.9,52.5,241.8,52.8,232.5,52.7z"/>
	<path class="st0" d="M255.7,56.3c-43,4.6-86.2-3.1-124.7-22.3C112.7,25,95.8,13.4,81.1,0h-1.5c14.9,13.7,32.1,25.6,50.8,34.9
		c31.4,15.6,65.8,23.7,100.8,23.7c8.2,0,16.3-0.4,24.5-1.3c1.4-0.2,2.8-0.3,4.2-0.5v-1C258.6,56,257.1,56.1,255.7,56.3z"/>
	<path class="st0" d="M184.1,57.7c-37-5.4-79.3-28.3-111.5-57.6h-1.6c7.8,7.2,16.3,14,25.5,20.5c28.7,20.3,60.6,34.2,87.6,38.1
		c15.6,2.3,32.2,3.4,48.9,3.4c9,0,18.1-0.3,27.1-1v-1C234.3,62,208.1,61.2,184.1,57.7z"/>
</g>
</svg>
