<?xml version="1.0" encoding="utf-8"?>
<!-- Generator: Adobe Illustrator 24.1.2, SVG Export Plug-In . SVG Version: 6.00 Build 0)  -->
<svg version="1.1" id="Layer_1" xmlns="http://www.w3.org/2000/svg" xmlns:xlink="http://www.w3.org/1999/xlink" x="0px" y="0px"
	 viewBox="0 0 50 170" style="enable-background:new 0 0 50 170;" xml:space="preserve">
<style type="text/css">
	.st0{fill:#8FBC8F;}
</style>
<g>
	<path class="st0" d="M1.1,120c0,3.5-0.3,7.6-1.1,12v4.9c1.5-6.4,2.1-12.2,2.1-17c0-7.2-0.4-19-2.1-33.6v9.9
		C0.9,106.4,1.1,114.6,1.1,120z"/>
	<path class="st0" d="M6.6,88.3c2,21.3-0.2,40.8-6.6,58.3v2.9c7.1-18.3,9.6-38.8,7.6-61.3C6.4,74.9,3.6,62,0,49.9v3.6
		C3.1,64.6,5.5,76.2,6.6,88.3z"/>
	<path class="st0" d="M12.1,81c3,23.5,0.7,45.6-6.8,65.8C3.8,151,2,155.1,0,159.1v2.2c2.4-4.6,4.4-9.3,6.2-14.1
		c7.5-20.3,9.8-42.6,6.8-66.2c-2-15.8-6.4-32.2-13-48.9v2.7C6.1,50.6,10.2,66.1,12.1,81z"/>
	<path class="st0" d="M8.3,47.6C23,93.4,20.5,134.5,0.8,170.1H2c19.5-35.7,22-76.9,7.3-122.7c-2.6-8.2-5.8-16.2-9.3-24v2.5
		C3.1,32.9,5.9,40.2,8.3,47.6z"/>
	<path class="st0" d="M18.8,67.2c5.4,29.1,4,56.3-4.1,81.1c-2.4,7.5-5.5,14.8-9.2,21.8h1.1c3.6-6.9,6.6-14.1,9-21.5
		c8.1-24.9,9.5-52.4,4.1-81.6C15.5,43.5,7.4,22.6,0,7.1v2.4C7.1,24.7,14.7,44.7,18.8,67.2z"/>
	<path class="st0" d="M23.2,62.4C23.2,62.4,23.2,62.5,23.2,62.4c5.3,28.6,4.5,55.9-2.4,81.2c-2.5,9.1-5.8,17.9-9.9,26.5H12
		c4-8.5,7.2-17.2,9.7-26.2c7-25.4,7.8-52.8,2.5-81.6C24,61.5,20.1,33.5,5,0.1H3.9C19.2,33.8,23.1,62.1,23.2,62.4z"/>
	<path class="st0" d="M22.7,38.1c17.9,56.7,7.3,102.2-6.2,131.9h1.1c13.5-29.9,24-75.5,6.1-132.2c-4.3-13.5-9-26.1-14.1-37.8H8.5
		C13.6,11.8,18.4,24.5,22.7,38.1z"/>
	<path class="st0" d="M21.7,21.7c15.3,39.5,19.8,77.2,13.5,111.8c-2.3,12.7-6.1,24.9-11.2,36.6H25c5.1-11.6,8.8-23.8,11.1-36.4
		C42.5,98.8,37.9,61,22.6,21.3C19.9,14.2,17,7.1,13.9,0.1h-1.1C16,7.2,18.9,14.5,21.7,21.7z"/>
	<path class="st0" d="M29.5,170.1h1.1C59.5,108.6,38.2,42.2,19,0.1h-1.1C37.1,42.2,58.6,108.6,29.5,170.1z"/>
	<path class="st0" d="M48.3,118.2c-1.2,8.1-4,28.1-13.7,51.8h1.1c9.6-23.7,12.5-43.6,13.6-51.7c2.6-18-3-68.5-24.8-118.3h-1.1
		C45.3,49.8,50.9,100.3,48.3,118.2z"/>
</g>
</svg>
