<?xml version="1.0" encoding="utf-8"?>
<!-- Generator: Adobe Illustrator 24.1.2, SVG Export Plug-In . SVG Version: 6.00 Build 0)  -->
<svg version="1.1" id="Layer_1" xmlns="http://www.w3.org/2000/svg" xmlns:xlink="http://www.w3.org/1999/xlink" x="0px" y="0px"
	 viewBox="0 0 470 40" style="enable-background:new 0 0 470 40;" xml:space="preserve">
<style type="text/css">
	.st0{fill:#8FBC8F;}
</style>
<g>
	<path class="st0" d="M264,10.3c6.5-4,14.6-6.7,23.4-6.7c9.5,0,19.6,3.2,29,11.7c8.3,7.5,11.5,16.4,12.1,24.7h1
		c-0.6-8.6-3.9-17.8-12.5-25.5C298.6-2.1,277.3,1,263.5,9.4c-4.1,2.5-14.3,9.6-20,21.5c-1.4,3-2.5,6-3.1,9.1h1
		C245.1,22.4,261.4,11.9,264,10.3z"/>
	<path class="st0" d="M325.5,6.6c1.2,1.7,2,3.3,2.7,4.9c1.7,3.7,3.1,6.8,9.3,7.9c3.6,0.6,6.3,3.2,7.5,7c1.2,3.8,0.5,7.7-1.7,9.9
		c-1.2,1.2-2.2,2.5-2.9,3.7h1.2c0.7-1,1.5-2.1,2.4-3c2.4-2.4,3.2-6.8,1.9-10.9c-1.3-4.2-4.3-7-8.3-7.6c-5.7-1-7-3.8-8.6-7.4
		c-0.7-1.6-1.5-3.3-2.8-5.1c-1.6-2.2-3.3-4.2-5.1-6h-1.4C321.7,2,323.7,4.2,325.5,6.6z"/>
	<path class="st0" d="M230.1,17.7c5.5-9.3,9.4-14.3,14.4-17.7h-1.7c-4.5,3.4-8.4,8.5-13.6,17.2c-4.7,7.8-6.7,15.6-7.3,22.8h1
		C223.5,33,225.5,25.3,230.1,17.7z"/>
	<path class="st0" d="M221.2,3.6l1.7-2.6c0.2-0.3,0.5-0.7,0.7-1h-1.2c-0.1,0.1-0.2,0.3-0.3,0.4l-1.7,2.6
		c-8.5,12.8-15.2,22.8-15.3,37h1C206.2,26.1,212.8,16.2,221.2,3.6z"/>
	<path class="st0" d="M341.8,2.1C353.5,13.7,364.5,27,358,37.9c-0.4,0.7-0.8,1.4-1.2,2.1h1.1c0.3-0.5,0.6-1.1,0.9-1.6
		c3.8-6.5,4.9-15.9-16.4-37c-0.4-0.4-0.9-0.9-1.4-1.4h-1.4C340.4,0.7,341.1,1.4,341.8,2.1z"/>
	<path class="st0" d="M363,12.9c5.5,9.2,5.9,14.4,5.9,14.5c0,0,0,0,0,0.1c1.1,5.7,1.3,7.4-0.6,12.6h1.1c1.8-5.1,1.6-7,0.5-12.7
		c-0.1-0.9-1.1-10.8-14.9-27.3h-1.4C358,5.1,361,9.4,363,12.9z"/>
	<path class="st0" d="M203.8,0h-1.1c-6.7,11.3-11.9,25.2-12.3,40h1C191.8,25.1,197.1,11.2,203.8,0z"/>
	<path class="st0" d="M379.9,40h1.2c1.2-11.5,0.2-24-11.2-40h-1.2C375.5,8.9,381.6,19.1,379.9,40z"/>
	<path class="st0" d="M188.3,0h-1.1c-6,12.2-9.1,25.8-9.3,40h1C179,25.8,182.2,12.2,188.3,0z"/>
	<path class="st0" d="M172.2,6.5c0.6-2.1,1.3-4.3,2.2-6.5h-1.1c-0.9,2.2-1.6,4.3-2.1,6.3C168.1,18,166.2,28.5,166,40h1
		C167.2,28.6,169.1,18.1,172.2,6.5z"/>
	<path class="st0" d="M382.5,2.3c5.8,11.1,8.8,20.8,7.5,37.7h1.1c1-12.6-0.5-24.4-7.7-38.2c-0.3-0.7-0.7-1.3-1-1.8h-1.1
		C381.6,0.7,382,1.5,382.5,2.3z"/>
	<path class="st0" d="M396.1,40h1c0.8-17.4-3-30.7-7.3-40h-1C392.7,8.5,396.9,21.9,396.1,40z"/>
	<path class="st0" d="M166.1,1c0.1-0.3,0.3-0.7,0.4-1h-1.1c-0.1,0.2-0.2,0.4-0.3,0.6c-5.4,12.5-8.4,25.7-9,39.4h1
		C157.8,26.5,160.8,13.5,166.1,1z"/>
	<path class="st0" d="M154.1,17.6c0.8-5.6,2.6-11.5,5.2-17.5h-1.1c-2.5,6-4.2,11.9-5.1,17.4c-1.1,7.4-2,15-2.5,22.6h1
		C152.1,32.4,153,24.9,154.1,17.6z"/>
	<path class="st0" d="M401.9,40h1c-0.6-17.3-5.5-32.5-8.7-40h-1.1C396.3,7.3,401.3,22.6,401.9,40z"/>
	<path class="st0" d="M407.3,37.6c0,0.9,0.1,1.6,0.1,2.2c0,0.1,0,0.2,0,0.3h1c0-0.1,0-0.2,0-0.4c0-0.5-0.1-1.2-0.1-2.1
		c-0.3-6-1-20.3-8.5-37.5h-1.1C406.3,17.3,407,31.6,407.3,37.6z"/>
	<path class="st0" d="M150.5,0h-1.1c-5.1,13.3-7.7,26.8-8.3,40h1C142.8,26.9,145.4,13.3,150.5,0z"/>
	<path class="st0" d="M271.3,27.1c4.6-2.5,9.6-3.7,14.5-3.7c4.1,0,8.2,0.9,11.9,2.7c6.7,3.2,9.8,8.7,11.2,14h1
		c-1.4-5.7-4.6-11.5-11.8-15c-8.4-4-18.6-3.6-27.2,1.1c-6,3.3-10.5,8.3-12.5,13.9h1.1C261.4,34.8,265.6,30.1,271.3,27.1z"/>
	<path class="st0" d="M411.1,25.9c1,5,1.7,9.7,2.3,14.1h1c-0.6-4.6-1.3-9.3-2.3-14.3c-2-9.9-4.3-18.3-6.8-25.7h-1.1
		C406.8,7.4,409.1,15.9,411.1,25.9z"/>
	<path class="st0" d="M145.3,0h-1.1c-4.8,13.2-8,26.8-9.6,40h1C137.2,26.9,140.5,13.3,145.3,0z"/>
	<path class="st0" d="M415.5,21.6c1.7,6.2,2.8,12.4,3.4,18.4h1c-0.6-6.2-1.7-12.4-3.4-18.7c-2.1-7.7-4.5-14.8-6.9-21.3h-1.1
		C411,6.6,413.4,13.8,415.5,21.6z"/>
	<path class="st0" d="M129.2,30.5c0.8-10.1,3.2-20.4,7.2-30.5h-1.1c-3.9,10.1-6.4,20.4-7.1,30.4c-0.2,3.3-0.4,6.4-0.5,9.6h1
		C128.8,36.9,128.9,33.8,129.2,30.5z"/>
	<path class="st0" d="M122.7,9.5c0.8-3.2,1.7-6.3,2.7-9.4h-1.1c-1,3-1.9,6.1-2.6,9.2c-2.3,9.6-3.5,19.7-3.5,30.8h1
		C119.3,29,120.4,19,122.7,9.5z"/>
	<path class="st0" d="M413.8,0.3c2.8,7,8.4,21.4,10.1,39.7h1c-1.6-18.4-7.3-32.9-10.1-40h-1.1L413.8,0.3z"/>
	<path class="st0" d="M429.9,40h1c-1.5-12.2-4.8-25.4-9.7-40h-1.1C425.1,14.6,428.4,27.8,429.9,40z"/>
	<path class="st0" d="M114.3,0h-1c-3.8,13.8-5.8,27.8-6.6,40h1C108.5,27.8,110.5,13.8,114.3,0z"/>
	<path class="st0" d="M98.6,0h-0.9c-3.2,11.3-5.4,24.3-6,40h1C93.3,24.3,95.4,11.2,98.6,0z"/>
	<path class="st0" d="M437.5,40h1c-2-15.5-4.8-28.8-8-40h-1C432.6,11.2,435.5,24.5,437.5,40z"/>
	<path class="st0" d="M426.3,5.4C426.3,5.4,426.3,5.4,426.3,5.4c3.6,13,5.9,24.4,7.1,34.6h1c-1.2-10.3-3.6-21.7-7.2-34.8
		c0-0.2-0.4-2.1-1.3-5.2h-1C425.8,3.4,426.2,5.4,426.3,5.4z"/>
	<path class="st0" d="M99.3,36.3c0.6-13.1,2.4-25.3,5.2-36.2h-1c-2.8,11-4.5,23.2-5.1,36.2c-0.1,1.3-0.1,2.5-0.1,3.8h1
		C99.2,38.8,99.3,37.5,99.3,36.3z"/>
	<path class="st0" d="M442.3,40h1c-1.8-15-4.9-29.1-7.9-40h-1C437.4,10.8,440.6,24.8,442.3,40z"/>
	<path class="st0" d="M92.8,0h-1c-3.8,13.1-6.1,26.4-6.9,40h1C86.6,26.4,88.9,13.1,92.8,0z"/>
	<path class="st0" d="M448.2,40h1c-1.7-12.1-4.3-25.8-8.4-40h-1C443.8,14.2,446.5,27.9,448.2,40z"/>
	<path class="st0" d="M85.9,0h-1.1c-3.4,13.8-4.8,27.3-5.4,40h1C81,27.4,82.4,13.8,85.9,0z"/>
	<path class="st0" d="M455.6,40h1c-2-14.1-5.5-27.5-9.8-40h-1.1C450.1,12.5,453.6,26,455.6,40z"/>
	<path class="st0" d="M78.7,0h-1c-3.2,11.9-5.4,25.2-5.8,40h1C73.3,25.2,75.5,11.9,78.7,0z"/>
	<path class="st0" d="M66.4,6.9c0.5-2.3,1.1-4.6,1.7-6.9h-1.1c-0.6,2.2-1.2,4.4-1.7,6.6C62.8,17.9,61.2,29,60.5,40h1
		C62.2,29.1,63.8,18,66.4,6.9z"/>
	<path class="st0" d="M461.9,40h1c-1.7-13-5.1-26.4-9.9-40h-1.1C456.8,13.6,460.2,27.1,461.9,40z"/>
	<path class="st0" d="M458.3,7.6c3.6,11.1,6.1,21.9,7.6,32.4h1c-1.5-10.6-4.1-21.5-7.7-32.7c-0.8-2.4-1.6-4.9-2.5-7.3h-1.1
		C456.6,2.5,457.5,5.1,458.3,7.6z"/>
	<path class="st0" d="M61.4,0h-1c-3.6,13-5.8,26.5-6.5,40h1C55.6,26.5,57.8,13.1,61.4,0z"/>
	<path class="st0" d="M468.8,27.1c0.4,2.4,0.8,4.8,1.2,7.2v-6.2c-0.1-0.4-0.1-0.8-0.2-1.2C468,17.5,465.7,8.5,463,0h-1
		C464.6,8.5,467,17.6,468.8,27.1z"/>
	<path class="st0" d="M45.6,36.4c0.7-12.6,2.8-24.7,6.3-36.3h-1c-3.4,11.6-5.5,23.7-6.2,36.3c-0.1,1.2-0.1,2.5-0.2,3.7h1
		C45.4,38.8,45.5,37.6,45.6,36.4z"/>
	<path class="st0" d="M470,6.8V2.7c-0.2-0.9-0.5-1.7-0.7-2.6h-1C468.9,2.4,469.5,4.7,470,6.8z"/>
	<path class="st0" d="M46.7,0h-1c-3.1,12.9-4.9,26.3-5.5,40h1C41.8,26.3,43.7,12.9,46.7,0z"/>
	<path class="st0" d="M36.7,0h-0.9c-2.7,12.9-4.2,26.3-4.4,40h1C32.6,26.2,34,12.9,36.7,0z"/>
	<path class="st0" d="M28.2,0h-1C23.8,14,22,27.4,21.4,40h1C23,27.4,24.8,14,28.2,0z"/>
	<path class="st0" d="M14,39.4c0.1-7,0.3-14.2,0.2-21.4c-0.1-5.4,0.6-11.5,2-18h-1c-1.4,6.5-2.1,12.6-2,18c0.1,7.2,0,14.4-0.2,21.3
		c0,0.2,0,0.4,0,0.7h1C14,39.8,14,39.6,14,39.4z"/>
	<path class="st0" d="M6.7,12.4C7.3,8.2,8,4.1,8.8,0h-1C7,4,6.3,8.1,5.7,12.2C4.4,22.2,3.4,31.4,2.9,40h1
		C4.4,31.4,5.4,22.3,6.7,12.4z"/>
</g>
<g>
	<path class="st0" d="M481.4-15l-3.2,61.8l-474-0.7L4.1,40H470V0H9.1L8.3-1.9L481.4-15 M482.5-16l-1.1,0L8.3-2.9l-1.4,0l0.5,1.3
		l0.8,1.9L8.4,1h0.7H469v38H4.1h-1l0,1l0.2,6.1l0,1l1,0l474,0.7l1,0l0-0.9l3.2-61.8L482.5-16L482.5-16z"/>
</g>
</svg>
