<?xml version="1.0" encoding="utf-8"?>
<!-- Generator: Adobe Illustrator 24.1.2, SVG Export Plug-In . SVG Version: 6.00 Build 0)  -->
<svg version="1.1" id="Layer_1" xmlns="http://www.w3.org/2000/svg" xmlns:xlink="http://www.w3.org/1999/xlink" x="0px" y="0px"
	 viewBox="0 0 470 40" style="enable-background:new 0 0 470 40;" xml:space="preserve">
<style type="text/css">
	.st0{fill:#8FBC8F;}
</style>
<g>
	<path class="st0" d="M215,27.7c-5.8-10.5-6.6-19.8-5-27.7h-1c-1.9,9.1-0.2,18.6,5.1,28.2c2.7,5,5.9,8.8,9.4,11.8h1.6
		C221.3,37,217.9,33,215,27.7z"/>
	<path class="st0" d="M294.4,21.1C294.4,21.1,294.4,21.1,294.4,21.1c2.3-5,4.3-12.7,3.7-21.1h-1c0.6,8.2-1.3,15.8-3.6,20.7h0
		c-5.4,11.8-9.8,15.7-16.3,19.3h2C285.1,36.5,289.3,32.3,294.4,21.1z"/>
	<path class="st0" d="M195.2,28.1c1.2,2.9,3.7,7.3,7,11.8h1.3c-3.9-5.3-6.5-10.1-7.4-12.2c-2.2-5.1-5.6-15.5-4.6-27.8h-1
		C189.6,12.4,193,22.9,195.2,28.1z"/>
	<path class="st0" d="M306.2,7.1C306.2,7.1,306.2,7.2,306.2,7.1c-0.3,4.9-2.4,18.4-14.8,32.9h1.2c0.8-0.9,1.5-1.8,2.2-2.7
		c7.6-9.7,11.7-19.8,12.5-30c0.1-0.3,0.7-3.8,3-7.3H309C306.8,3.6,306.2,6.9,306.2,7.1z"/>
	<path class="st0" d="M179,26.4c-0.7-3.7-1.6-8-2.7-12.7c-1.2-5-1.7-9.5-1.7-13.7h-1c0,4.2,0.5,8.8,1.7,13.9c1.1,4.7,2,9,2.7,12.7
		c1,5,1.8,9.3,3.1,13.4h1.1C180.9,35.8,180,31.5,179,26.4z"/>
	<path class="st0" d="M318.9,22.4c0-0.1,1.9-11.9,7.7-22.5h-1.1c-5.6,10.4-7.4,21.9-7.5,22.3c-0.8,4-3.7,10.1-9.2,17.7h1.2
		C315.3,32.5,318.1,26.4,318.9,22.4C318.9,22.5,318.9,22.5,318.9,22.4z"/>
	<path class="st0" d="M336.2,2c-1.1,2.8-2,5.8-3.1,9c-1.3,4.1-2.8,8.8-4.9,14.1c-2.2,5.8-4.4,10.6-6.6,14.8h1.1
		c2.1-4.1,4.3-8.9,6.4-14.5c2.1-5.3,3.6-10,4.9-14.2c1-3.2,2-6.3,3-9c0.3-0.9,0.6-1.6,0.9-2.4H337C336.7,0.6,336.5,1.3,336.2,2z"/>
	<path class="st0" d="M160.5,15.4c2.1,9.3,4.3,17.4,6.9,24.6h1.1c-2.6-7.2-4.8-15.4-6.9-24.8C160.3,10,159.9,5,160,0h-1
		C158.9,5,159.3,10.2,160.5,15.4z"/>
	<path class="st0" d="M147.5,0h-1c-0.1,13,2.3,26.5,7.3,40h1.1C149.8,26.5,147.3,13,147.5,0z"/>
	<path class="st0" d="M348.4,9.1c0.5-3,1-6,1.3-9.2h-1.2c-0.2,2.8-0.6,5.8-1.1,9c-0.3,1.7-0.5,3.4-0.8,5c-1.6,11.6-2.3,12.9-12.9,26
		h1.3c10-12.5,11-14.2,12.6-25.8C347.9,12.5,348.2,10.8,348.4,9.1z"/>
	<path class="st0" d="M140.3,40h1c-4.2-15.8-5.9-28.4-5.7-40h-1C134.4,11.6,136,24.2,140.3,40z"/>
	<path class="st0" d="M355.8,19.5c-1.6,8.4-3.4,14.5-6.5,20.5h1.1c3.1-5.9,4.8-12,6.4-20.3c1.3-7,2.4-13.4,2.9-19.7h-1.1
		C358.1,5.6,357.2,12,355.8,19.5z"/>
	<path class="st0" d="M125.8,0h-1c-0.4,8.4,0.2,16.9,1.6,25.6c0.8,5.2,1.9,10,3.2,14.4h1.1C126.9,26.2,125.3,12.9,125.8,0z"/>
	<path class="st0" d="M365.7,0h-1c0,0.2,0,0.4,0,0.6c-0.8,16.2-3.7,28.7-8.3,39.4h1.1c4.5-10.7,7.4-23.1,8.2-39.3
		C365.7,0.4,365.7,0.2,365.7,0z"/>
	<path class="st0" d="M364.7,35c-0.7,1.7-1.5,3.3-2.2,5h1.1c0.7-1.5,1.4-3.1,2-4.6c4.9-11.7,6.3-24,5.9-35.4h-1
		C370.9,11.3,369.6,23.5,364.7,35z"/>
	<path class="st0" d="M122.6,40h1c-3.6-13.3-4.2-26.8-3.5-40h-1C118.4,13.2,119.1,26.6,122.6,40z"/>
	<path class="st0" d="M110.7,0h-1c-0.7,14,0.7,27.6,3.5,40h1C111.4,27.6,110,14,110.7,0z"/>
	<path class="st0" d="M377,19.2c-0.3-5.7-0.1-9.3,0-12.2c0.1-2.5,0.2-4.5,0-7h-1c0.2,2.5,0.1,4.4,0,6.9c-0.1,2.9-0.3,6.5,0,12.3
		c0.2,3.5-0.8,10.9-4.7,20.8h1.1C376.2,30.1,377.2,22.7,377,19.2z"/>
	<path class="st0" d="M231.3,24.8c4.6,5.4,11.3,8.5,18.9,8.7c0.7,0,1.4,0,2.1,0c14.1,0,21.5-5.2,26.3-18.1c0,0,0,0,0-0.1
		c0-0.1,1.7-7.6-0.2-15.4h-1c1.9,7.4,0.4,14.7,0.3,15.2c-4.9,13-12.6,17.9-27.5,17.3c-7.3-0.2-13.8-3.2-18.1-8.4
		c-4.4-5.1-6.2-12-5.3-19.4c0.2-1.6,0.6-3.2,1.2-4.8h-1.1c-0.6,1.5-1,3.1-1.2,4.6C224.8,12.3,226.7,19.4,231.3,24.8z"/>
	<path class="st0" d="M104,40h1c-2.3-12.1-2.5-25.8-0.8-40h-1C101.5,14.2,101.7,27.9,104,40z"/>
	<path class="st0" d="M379,40h1.1c4-12.2,4.7-24.9,2.9-40h-1C383.8,15.1,383,27.8,379,40z"/>
	<path class="st0" d="M388.5,0h-1c1.3,13.7-0.2,27-4.4,40h1.1C388.3,27,389.8,13.6,388.5,0z"/>
	<path class="st0" d="M97.2,0h-1c-0.6,14.5,0.1,27.8,2.1,40h1C97.3,27.8,96.6,14.5,97.2,0z"/>
	<path class="st0" d="M91.4,40C88.9,25,87.7,11.9,87.8,0h-1c-0.1,11.9,1.1,25.1,3.6,40H91.4z"/>
	<path class="st0" d="M392.8,15.3c-0.4,8.5-1.8,16.7-4.2,24.7h1c2.3-8,3.7-16.2,4.1-24.7c0.3-5.3,0.1-10.5-0.3-15.3h-1
		C392.9,4.8,393.1,9.9,392.8,15.3z"/>
	<path class="st0" d="M77,31.5c-1-5.9-1.6-17.5-0.7-31.5h-1c-1,14.1-0.4,25.7,0.7,31.6c0.3,1.8,0.9,4.7,1.7,8.4h1
		C77.8,36.2,77.3,33.2,77,31.5z"/>
	<path class="st0" d="M399.6,0h-1c1.8,14.5,1,27.6-2.5,40h1.1C400.6,27.5,401.4,14.4,399.6,0z"/>
	<path class="st0" d="M408.6,14.2c-0.4-4.9-0.9-9.7-1.5-14.2h-1c0.6,4.6,1.1,9.3,1.5,14.3c0.7,8-0.3,16.7-2.8,25.7h1
		C408.2,30.9,409.2,22.2,408.6,14.2z"/>
	<path class="st0" d="M61,13.6C61,8.8,61.1,4.3,61.2,0h-1C60.1,4.3,60,8.8,60,13.6c0.1,9,1,17.9,2.6,26.4h1
		C62.1,31.4,61.2,22.6,61,13.6z"/>
	<path class="st0" d="M69.4,39.7c0,0.1,0,0.2,0.1,0.3h1c-2.1-12.2-3.1-26-2.7-40h-1C66.4,13.6,67.3,27.3,69.4,39.7z"/>
	<path class="st0" d="M400.3,40h1c2.8-11.5,3.5-24.3,1.6-40h-1C403.9,15.7,403.2,28.5,400.3,40z"/>
	<path class="st0" d="M412.2,26.9c-0.1,4.5-0.5,8.8-1.2,13.1h1c0.7-4.2,1.1-8.6,1.2-13c0.2-9-0.3-18.1-1.3-27h-1
		C411.9,8.7,412.5,17.8,412.2,26.9z"/>
	<path class="st0" d="M55.4,40h1c-2.1-13.7-2.7-27-2-40h-1C52.7,13,53.4,26.3,55.4,40z"/>
	<path class="st0" d="M48.4,27.5l0-4C48.5,16.2,48.5,8.2,49,0h-1c-0.4,8.3-0.5,16.2-0.6,23.5l0,4c0,4,0.2,8.2,0.7,12.5h1
		C48.6,35.7,48.3,31.5,48.4,27.5z"/>
	<path class="st0" d="M417.8,0h-1c2.4,17.5,2.9,31.8,2.9,40c0,0,0,0,0,0h1c0,0,0,0,0,0C420.7,31.8,420.2,17.5,417.8,0z"/>
	<path class="st0" d="M43.5,40h1c-2.5-14.3-3.4-27.7-3-40h-1C40.1,12.3,40.9,25.7,43.5,40z"/>
	<path class="st0" d="M425.1,8.2c1,11.1,0.9,21.7-0.3,31.8h1c1.2-10.1,1.3-20.8,0.3-31.9c-0.3-2.7-0.6-5.4-0.9-8.1h-1
		C424.6,2.7,424.9,5.4,425.1,8.2z"/>
	<path class="st0" d="M30.1,0h-1c-0.9,13.5-0.3,26.9,1.6,40h1C29.8,26.9,29.2,13.5,30.1,0z"/>
	<path class="st0" d="M431.6,0.8c0-0.3-0.1-0.6-0.1-0.9h-1c0,0.3,0.1,0.7,0.1,1c1.7,13.5,1.7,26.5-0.1,39h1
		C433.3,27.4,433.3,14.4,431.6,0.8z"/>
	<path class="st0" d="M24.3,40h1c-2-13.3-2.6-26.7-1.8-40h-1C21.7,13.3,22.4,26.7,24.3,40z"/>
	<path class="st0" d="M435.4,40h1c1.5-12.8,1.2-26.2-0.8-40h-1C436.5,13.8,436.8,27.2,435.4,40z"/>
	<path class="st0" d="M439.5,40h1c1.5-12.8,1.5-26.2-0.2-40h-1C441,13.8,441,27.1,439.5,40z"/>
	<path class="st0" d="M14,0h-1c-0.5,13.1,0.5,26.5,2.9,40h1C14.5,26.4,13.5,13.1,14,0z"/>
	<path class="st0" d="M9.8,0h-1c-0.6,13,0,26.4,1.8,40h1C9.9,26.4,9.3,13,9.8,0z"/>
	<path class="st0" d="M443.9,40h1c1.6-12.9,1.7-26.3,0.3-40h-1C445.6,13.7,445.5,27.1,443.9,40z"/>
	<path class="st0" d="M1.5,20.3C1.1,13.4,0.9,6.7,1,0H0c-0.1,6.7,0.1,13.5,0.5,20.4C1,27.2,1.8,33.7,2.7,40h1
		C2.8,33.7,2,27.1,1.5,20.3z"/>
	<path class="st0" d="M449.2,40h1c1.6-12.3,2-25.6,0.6-40h-1C451.2,14.3,450.8,27.7,449.2,40z"/>
	<path class="st0" d="M455.6,40h1c1.3-13,1.1-26.3-0.5-40h-1C456.8,13.7,456.9,27,455.6,40z"/>
	<path class="st0" d="M461.6,40h1c1.2-13.6,0.8-27-0.9-40h-1C462.4,13,462.9,26.4,461.6,40z"/>
	<path class="st0" d="M466.8,38.2c-0.1,0.5-0.2,1.2-0.3,1.8h1c0.1-0.6,0.2-1.2,0.2-1.7c1.1-7.7,0.7-21.3-1.8-38.3h-1
		C467.6,16.9,467.9,30.5,466.8,38.2z"/>
</g>
<g>
	<path class="st0" d="M-4.8-6.2l469.3,1.8l0.6,4.3H0l0,40h465.6l-4.9,9.5L-3.5,46.3L-4.8-6.2 M-5.9-7.2l0,1l1.4,52.5l0,1l1,0
		l464.2,3.2l0.6,0l0.3-0.5l4.9-9.5l0.7-1.5h-1.6H1L1,1h464h1.2L466-0.2l-0.6-4.3l-0.1-0.9l-0.9,0L-4.8-7.2L-5.9-7.2L-5.9-7.2z"/>
</g>
</svg>
