<?xml version="1.0" encoding="utf-8"?>
<!-- Generator: Adobe Illustrator 24.1.2, SVG Export Plug-In . SVG Version: 6.00 Build 0)  -->
<svg version="1.1" id="Layer_1" xmlns="http://www.w3.org/2000/svg" xmlns:xlink="http://www.w3.org/1999/xlink" x="0px" y="0px"
	 viewBox="0 0 470 40" style="enable-background:new 0 0 470 40;" xml:space="preserve">
<style type="text/css">
	.st0{fill:#8FBC8F;}
</style>
<g>
	<path class="st0" d="M304.1,2.3c-1.4,0.7-2.8,1.5-4.4,2.3c-4.3,2.3-26.6,8.7-43.2-4.7h-1.6c8.3,7.1,18.1,9.2,26.5,9.2
		c9,0,16.4-2.4,18.8-3.7c1.6-0.8,3-1.6,4.4-2.3c2.2-1.2,4.2-2.2,6.1-3.3h-2C307.2,0.7,305.7,1.5,304.1,2.3z"/>
	<path class="st0" d="M303.2,16.8c-11.8,7.7-27.5,7.7-47.9,0C246.8,13.6,239.9,6.5,235,0h-1.3c5.2,7,12.6,14.5,21.2,17.7
		c10.4,3.9,19.5,5.9,27.6,5.9c8.1,0,15.1-2,21.2-5.9C311.3,12.7,318.4,6.5,324,0h-1.2C318,5.6,311.6,11.3,303.2,16.8z"/>
	<path class="st0" d="M317.4,24.4c-22,19.8-69.4,16.4-87.4-0.5c-9.7-9.2-13.9-16.1-16.4-24h-1.1c2.5,8.1,6.7,15.3,16.7,24.7
		c9.6,9,27.5,14.3,45.6,14.3c16.2,0,32.6-4.2,43.2-13.8c10.4-9.4,18-18,23.2-25.2h-1.2C335,7,327.6,15.3,317.4,24.4z"/>
	<path class="st0" d="M199.9,0h-1.1c6.9,19.2,17,31.5,36.7,40h2.6C217.4,31.6,207,19.3,199.9,0z"/>
	<path class="st0" d="M324.8,32l-0.2,0.1c-3.7,3-7.5,5.6-11.4,7.8h2c3.5-2,6.8-4.4,10-7l0.2-0.1c12.3-10.2,20.7-17.1,28.8-32.8h-1.1
		C345.3,15,337.3,21.7,324.8,32z"/>
	<path class="st0" d="M363.9,1.6c-4.4,5.5-10.5,13-18.8,23.8c-4.3,5.6-8.8,10.5-13.4,14.6h1.5c4.4-4,8.6-8.6,12.7-14
		c8.2-10.8,14.3-18.3,18.7-23.8c0.6-0.8,1.2-1.5,1.8-2.3h-1.3C364.8,0.5,364.3,1,363.9,1.6z"/>
	<path class="st0" d="M187.2,2.4c-0.3-0.8-0.6-1.6-0.9-2.5h-1.1c0.4,0.9,0.7,1.9,1.1,2.8c6.9,17.1,15,28.8,23.6,37.2h1.5
		C202.5,31.7,194.3,19.8,187.2,2.4z"/>
	<path class="st0" d="M176.2,11.8c-1.3-4.2-2.5-8.1-3.5-11.9h-1c1,3.9,2.2,7.9,3.6,12.2c3.5,11.1,9,20.3,15.5,27.8h1.3
		C185.4,32.4,179.8,23.2,176.2,11.8z"/>
	<path class="st0" d="M346.2,40h1.4c19.6-19.9,28.9-29.7,34.2-40h-1.1C375.3,10.1,365.9,20,346.2,40z"/>
	<path class="st0" d="M171.4,25.4l-0.6-1.3c-3.6-8.2-6.5-16.3-8.7-24.2H161c3.1,11.4,7,20.2,9,24.6l0.6,1.3
		c0.3,0.7,2.9,6.5,8.5,14.1h1.2C174.4,32.1,171.7,26.1,171.4,25.4z"/>
	<path class="st0" d="M360.8,38.1c-0.6,0.6-1.1,1.2-1.7,1.8h1.4c0.4-0.4,0.7-0.8,1.1-1.2c11.7-12.9,21-24.2,27.3-38.8h-1.1
		C381.6,14.3,372.3,25.4,360.8,38.1z"/>
	<path class="st0" d="M367,40h1.4c11.1-12.3,20.1-25.7,26.7-40h-1.1C387.2,14.2,378.2,27.7,367,40z"/>
	<path class="st0" d="M165.7,24.8c-4.9-8.2-8.3-16.5-10.6-24.9h-1c2.3,8.5,5.7,17,10.8,25.4c3.4,5.6,6.3,10.4,9,14.6h1.2
		C172.2,35.6,169.2,30.7,165.7,24.8z"/>
	<path class="st0" d="M154.7,26.8c-3.6-7.9-6.7-16.9-9-26.8h-1c2.3,10,5.5,19.3,9.1,27.2c2.2,4.7,4.4,9,6.7,12.8h1.2
		C159.3,36,157,31.7,154.7,26.8z"/>
	<path class="st0" d="M395.6,14.6c-5,8.7-11.3,17.1-18.7,25.3h1.3c7.2-8,13.2-16.3,18.2-24.8c3.2-5.5,5.6-10.6,7.4-15.2h-1.1
		C401,4.4,398.6,9.3,395.6,14.6z"/>
	<path class="st0" d="M384.8,40h1.3c12.8-14.3,21-26.8,25.3-40h-1.1C406,13.1,397.8,25.7,384.8,40z"/>
	<path class="st0" d="M141.4,16.5c-2.2-5.1-3.8-10.6-4.9-16.6h-1c1.1,6.1,2.8,11.8,5,17c3.8,8.9,7.7,16.5,11.6,23h1.2
		C149.2,33.3,145.3,25.6,141.4,16.5z"/>
	<path class="st0" d="M130.8,0h-1c2.5,14.8,6.9,28,13.5,40h1.2C137.8,28,133.3,14.8,130.8,0z"/>
	<path class="st0" d="M398.2,31.5c-2.1,2.9-4.3,5.7-6.6,8.5h1.3c2.1-2.6,4.1-5.2,6.1-7.9c7.5-10.4,13-21.1,16.5-32.1h-1.1
		C411,10.7,405.6,21.3,398.2,31.5z"/>
	<path class="st0" d="M124.4,8.7c-0.6-3-1.1-5.9-1.6-8.8h-1c0.5,2.9,1,5.9,1.6,8.9c2.1,11.2,6,21.6,11,31.1h1.1
		C130.4,30.5,126.6,20,124.4,8.7z"/>
	<path class="st0" d="M398.7,40h1.3c10-12.6,17-25.9,21.1-40h-1C415.9,14,408.8,27.4,398.7,40z"/>
	<path class="st0" d="M404.9,40h1.3c11.1-13.2,18.4-26.2,22.3-40h-1.1C423.5,13.8,416.1,26.8,404.9,40z"/>
	<path class="st0" d="M110.2,0h-1c2.2,9.5,6.6,24.4,14.6,40h1.1C116.9,24.5,112.4,9.5,110.2,0z"/>
	<path class="st0" d="M95.1,0h-1c2.6,14.4,7.1,27.9,12.8,40h1.1C102.2,27.9,97.7,14.3,95.1,0z"/>
	<path class="st0" d="M416.4,40h1.2c9.4-13.4,16-27,19.6-40h-1C432.6,12.9,425.8,26.6,416.4,40z"/>
	<path class="st0" d="M414.3,36.4c-0.7,1-1.6,2.2-2.6,3.6h1.2c0.8-1.1,1.5-2.1,2.1-3c8.2-12,14.4-23.5,17.7-37h-1
		C428.5,13.2,422.5,24.6,414.3,36.4z"/>
	<path class="st0" d="M112.1,31.1c-4.4-7.3-7.9-18.3-10.1-31.1h-1c2.3,13.4,5.9,24.3,10.3,31.6c1.8,3,3.4,5.7,5,8.4h1.2
		C115.7,37.2,114,34.3,112.1,31.1z"/>
	<path class="st0" d="M96.1,35.1c-3.7-12-6.5-23.7-8.2-35.2h-1c1.8,11.6,4.5,23.4,8.3,35.5c0.5,1.5,1,3,1.6,4.5h1.1
		C97.2,38.4,96.6,36.7,96.1,35.1z"/>
	<path class="st0" d="M427.3,40h1.2c7.3-12.1,12.6-25.4,15-40h-1C440.1,14.6,434.6,27.9,427.3,40z"/>
	<path class="st0" d="M80.5,0h-1C81,12.6,85,26.3,91,40h1.1C86,26.3,82,12.6,80.5,0z"/>
	<path class="st0" d="M439.8,40h1.1c8.8-16.2,11.1-30,11.1-40h-1C451.1,9.9,448.8,23.8,439.8,40z"/>
	<path class="st0" d="M78.8,13.7C77.7,9,76.7,4.5,75.9,0h-1c0.8,4.6,1.8,9.2,2.9,14c2.2,9.1,4.9,17.7,7.9,26h1.1
		C83.7,31.6,81,22.9,78.8,13.7z"/>
	<path class="st0" d="M444.1,40h1.1c6.3-12.3,10.3-25.6,12-40h-1C454.5,14.4,450.5,27.7,444.1,40z"/>
	<path class="st0" d="M64.9,9.8c-0.7-3.3-1.2-6.5-1.7-9.8h-1c0.5,3.4,1.1,6.7,1.8,10C66,20.3,69,30.3,72.7,40h1.1
		C70,30.2,67,20.1,64.9,9.8z"/>
	<path class="st0" d="M455.3,26.7c-1.7,4.5-3.6,8.9-5.8,13.3h1.1c2.1-4.2,4-8.5,5.6-12.9c3.2-8.7,5.5-17.7,6.8-27.1h-1
		C460.7,9.2,458.5,18.1,455.3,26.7z"/>
	<path class="st0" d="M455.8,40h1.1c5.7-12.7,9.3-26,10.9-40h-1C465.2,13.9,461.5,27.3,455.8,40z"/>
	<path class="st0" d="M56.8,0h-1c2,13.6,5.4,27,10.3,40h1.1C62.3,27,58.8,13.6,56.8,0z"/>
	<path class="st0" d="M55.6,29.2C52.5,19.4,50,9.6,48.3,0h-1c1.7,9.8,4.2,19.7,7.4,29.6c1.1,3.5,2.4,7,3.7,10.4h1.1
		C58,36.3,56.8,32.7,55.6,29.2z"/>
	<path class="st0" d="M464.8,28.1c-1.3,4-2.8,7.9-4.5,11.8h1.1c1.6-3.8,3-7.6,4.3-11.5c1.7-5.4,3.2-10.9,4.3-16.5V6.4
		C468.8,13.8,467.1,21.1,464.8,28.1z"/>
	<path class="st0" d="M46.2,19C44.9,12.6,43.8,6.2,43,0h-1c0.8,6.4,1.9,12.8,3.2,19.2c1.5,7.1,3.2,14.1,5.3,20.8h1
		C49.5,33.2,47.6,26.2,46.2,19z"/>
	<path class="st0" d="M465.2,40h1.1c1.4-3.5,2.6-7.1,3.8-10.6v-3.5C468.6,30.6,467,35.3,465.2,40z"/>
	<path class="st0" d="M35.2,0h-1c2.4,15.6,5.9,29.3,9.3,40h1C41.1,29.3,37.5,15.6,35.2,0z"/>
	<path class="st0" d="M27.1,16.8C26,11.6,25,5.9,24.2,0h-1c0.8,6,1.8,11.7,3,17c1.6,7.7,3.7,15.4,6.2,23h1.1
		C30.8,31.9,28.7,24,27.1,16.8z"/>
	<path class="st0" d="M14.9,0h-1c1.2,12.5,3.6,25.6,8.3,40h1.1C18.5,25.6,16.1,12.4,14.9,0z"/>
	<path class="st0" d="M4.7,0h-1c1.6,13.4,4.8,26.3,9.7,40h1.1C9.5,26.2,6.3,13.4,4.7,0z"/>
</g>
<g>
	<path class="st0" d="M4.4-2.9L471-1.3l0.2,42.6L15.6,43l-1.1-3L470,40V0L4.7,0L4.4-2.9 M3.3-3.9l0.1,1.1l0.3,2.8L3.8,1l0.9,0L469,1
		v38L14.5,39L13,39l0.5,1.4l1.1,3l0.2,0.6l0.7,0l455.6-1.7l1,0l0-1L472-1.4l0-1l-1,0L4.4-3.9L3.3-3.9L3.3-3.9z"/>
</g>
</svg>
