<?xml version="1.0" encoding="utf-8"?>
<!-- Generator: Adobe Illustrator 24.1.2, SVG Export Plug-In . SVG Version: 6.00 Build 0)  -->
<svg version="1.1" id="Layer_1" xmlns="http://www.w3.org/2000/svg" xmlns:xlink="http://www.w3.org/1999/xlink" x="0px" y="0px"
	 viewBox="0 0 250 70" style="enable-background:new 0 0 250 70;" xml:space="preserve">
<style type="text/css">
	.st0{fill:#8FBC8F;}
</style>
<g>
	<path class="st0" d="M0,2.8v1.1C4.5,5.7,10.1,7,17.9,8.7c2.8,0.7,6,1.4,9.5,2.2C44.9,15,59.9,11.3,71.1,0h-1.4
		c-7.9,7.6-17.7,11.5-29,11.5c-4.2,0-8.6-0.5-13.1-1.6c-3.5-0.8-6.6-1.6-9.5-2.2C10.1,6,4.5,4.7,0,2.8z"/>
	<path class="st0" d="M-0.1,20.6v1.1c8.7,3,19.2,4.9,32.6,5.9c29.8,2.3,44.3-12.8,55.9-25c0.9-0.9,1.8-1.8,2.7-2.7h-1.4
		c-0.7,0.7-1.3,1.4-2,2.1C77,13.2,63.8,26.8,38.4,26.8c-1.9,0-3.8,0-5.8-0.2C19.1,25.6,8.6,23.7-0.1,20.6z"/>
	<path class="st0" d="M0,36.3v1.1c4.5,1.5,9.4,2.9,14.5,3.9c23.2,4.5,44.1-0.4,62-14.6C89.5,16.6,98.6,7.5,105-0.1h-1.4
		c-6.2,7.3-15,16.2-27.7,26.1C62.4,36.6,47.3,41.9,30.7,41.9c-5.2,0-10.6-0.5-16.1-1.6C9.4,39.3,4.5,37.9,0,36.3z"/>
	<path class="st0" d="M0,47.9v1c20.4,4.9,41,3.2,60.8,0c28.8-4.6,55.6-44.2,56.3-45.2c1-1.3,1.9-2.5,2.8-3.7h-1.2
		c-0.8,1.1-1.6,2.1-2.4,3.1l0,0c-0.3,0.4-27,40.2-55.6,44.8C49.8,49.7,38.6,51,27.4,51C18.3,51,9.1,50.1,0,47.9z"/>
	<path class="st0" d="M0,58.7v1c9.4,2.3,19.7,3.7,30.9,4.1c34.7,1,56.9-11.3,69.3-21.7c13.1-11,18.6-22.5,18.9-23.2
		c3.5-5.4,4.7-6.5,5.7-7.3c1.4-1.1,2.4-2,7.5-11.6h-1.1c-4.7,9-5.8,9.9-7,10.9c-1.1,0.9-2.3,2-5.9,7.5c0,0.1,0,0.1,0,0.1
		c0,0.1-5.3,11.7-18.7,22.9C87.7,51.3,67,62.9,34.9,62.9c-1.3,0-2.6-0.1-4-0.1C19.7,62.4,9.4,61,0,58.7z"/>
	<path class="st0" d="M0,65v1c5.9,1.3,10.1,1.9,11.5,2.2c25.2,2.8,44,2.5,71-7.6c26.6-9.9,38.4-32.3,38.5-32.5l0,0
		c4.7-9.3,8.5-12.2,8.5-12.2c0.1-0.2,5.5-5.4,10.2-15.8h-1c-0.1,0.3-0.3,0.7-0.5,1.1C133.8,10.3,129,15,129,15
		c-0.1,0.1-3.9,3-8.7,12.5c-0.2,0.3-11.8,22.2-38,32c-17.9,6.7-32.2,9.1-47.2,9.1c-7.5,0-15-0.6-23.3-1.5C10.2,66.9,6,66.3,0,65z"/>
	<path class="st0" d="M3.2,70c-1.1-0.2-2.1-0.4-3.2-0.7V70H3.2z"/>
	<path class="st0" d="M60.3,70.1h5.2c1.7-0.4,3.3-0.7,5-1c23.9-4.5,45.8-21.6,50.3-31.5c4.6-10.1,9.4-15.6,9.4-15.7l0,0l1.5-1.8
		c4-4.9,6.9-8.5,11.1-16.6c0.4-0.8,0.9-1.9,1.5-3.3h-1.1c-0.5,1.1-0.9,2.1-1.3,2.8c-4.2,8-7.1,11.6-11,16.5l-1.5,1.8
		c-0.2,0.2-4.9,5.9-9.5,15.9c-4.5,9.6-26,26.5-49.6,30.9c-2.1,0.4-4.2,0.8-6.2,1.2C62.8,69.5,61.5,69.8,60.3,70.1z"/>
	<path class="st0" d="M85.8,70h2.5c7.2-3.8,13.3-8,18.7-12.1c15.6-12,25.4-29.9,26-31c7.8-9.2,13.1-18.4,16.8-26.9h-1.1
		c-3.6,8.3-8.9,17.2-16.5,26.3c-0.1,0-0.1,0.1-0.1,0.1c-0.1,0.2-10,18.6-25.7,30.7C99.5,62.4,92.6,66.7,85.8,70z"/>
	<path class="st0" d="M96.9,70H99c19.5-10.6,28.9-22.9,34.7-30.5c7.3-9.4,15.2-20.8,21.6-39.5h-1.1c-6.4,18.3-14.2,29.6-21.3,38.9
		C127,46.6,117.3,59.3,96.9,70z"/>
	<path class="st0" d="M108,70h1.9c15.2-10,22.3-19.8,22.7-20.3c0.3-0.4,5.6-6.8,12.3-18.4c4.3-7.4,9.7-18,14.7-31.3h-1.1
		c-5,13.1-10.3,23.5-14.5,30.8c-6.8,11.8-12.1,18.1-12.2,18.2l0,0c0,0.1-7.4,10.5-23.6,20.9C108.1,70,108.1,70,108,70z"/>
	<path class="st0" d="M119.4,69.9h1.6c24.3-20.2,35-47.4,43.4-68.8l0.3-0.8l0,0l0.1-0.2V0h-1.1l-0.3,0.8
		C154.9,22.3,144.1,49.8,119.4,69.9z"/>
	<path class="st0" d="M127.2,70h1.4c7.2-7.2,13.2-14.5,18-21.2c15.2-21.2,21.7-40.6,21.9-41.1c0.9-2.6,1.8-5.2,2.7-7.7h-1.1
		c-0.8,2.4-1.7,4.9-2.6,7.4l0,0c0,0.2-6.5,19.6-21.7,40.9C140.9,55.1,134.7,62.7,127.2,70z"/>
	<path class="st0" d="M141.7,70h1.3c16.7-18.6,24.7-35.8,24.8-36l0,0c3.9-8.4,8.5-19.6,12.6-34h-1c-4,14.2-8.6,25.2-12.4,33.6l0,0
		C166.9,33.8,158.7,51.3,141.7,70z"/>
	<path class="st0" d="M134.1,70h1.4c10-10.2,17.6-20.9,23.1-30.2c10-16.8,15-32.1,17.2-39.8h-1c-2.2,7.7-7.2,22.8-17,39.3
		C152.2,48.8,144.5,59.6,134.1,70z"/>
	<path class="st0" d="M148.3,70h1.3c3.1-3.6,5.8-7.1,8.2-10.4c13.4-18.4,19.6-34.8,20.9-39.5c1.4-3.2,3.9-10.4,6.6-20.1h-1
		c-2.3,8.4-4.6,14.8-5.9,18.3c-0.3,0.1-0.5,0.5-0.8,1.4c-0.6,1.6-0.6,1.9-0.4,2.1c-2.2,6.2-8.3,21.1-20.4,37.6
		C154.3,62.8,151.5,66.4,148.3,70z"/>
	<path class="st0" d="M155.7,70h1.3c16.5-22,27-46.8,33.7-70h-1C183.1,23.3,172.5,48,155.7,70z"/>
	<path class="st0" d="M159.5,70h1.2c4.7-6.7,9.3-13.8,13.6-21.2c7.4-12.8,15.9-29.5,22.5-48.7h-1.1c-6.5,18.9-14.9,35.5-22.3,48.2
		C169,55.8,164.3,63.2,159.5,70z"/>
	<path class="st0" d="M164.3,70h1.2C182,47,194.7,23.2,203,0h-1.1C193.6,23.2,180.8,47,164.3,70z"/>
	<path class="st0" d="M168.4,70h1.2c12.8-18.7,27.6-43.4,37.2-70h-1.1C196,26.7,181.2,51.4,168.4,70z"/>
	<path class="st0" d="M178.2,70h1.2c3.1-5.1,4.7-8.3,4.9-8.7c0.7-1,17.5-25.9,28.7-61.3h-1c-11.4,35.7-28.4,60.5-28.6,60.9
		c0-0.1,0-0.1,0,0C183.3,60.9,181.6,64.5,178.2,70z"/>
	<path class="st0" d="M187.6,69.9l1.1,0.1c16.6-25.8,25.8-52.1,30.6-70h-1C213.4,17.9,204.2,44.2,187.6,69.9
		C187.5,70,187.5,70,187.6,69.9z"/>
	<path class="st0" d="M193,70h1.2c11.3-19.2,21.1-41.7,29.3-67.8c0.3-0.7,0.5-1.5,0.7-2.2h-1c-0.2,0.6-0.4,1.3-0.6,1.9
		C214.3,28.2,204.5,50.8,193,70z"/>
	<path class="st0" d="M198.1,70h1.1c9.3-16.5,16.7-34,23.3-51.2c2.4-6.3,4.6-12.6,6.5-18.8h-1c-1.9,6.1-4,12.2-6.4,18.4
		C214.9,35.8,207.4,53.4,198.1,70z"/>
	<path class="st0" d="M202.9,70h1.1c0.1-0.3,0.3-0.5,0.4-0.8c7.7-14.7,20.7-39.4,29.8-69.2h-1c-9.2,29.5-22,54.1-29.7,68.7
		C203.3,69.2,203.1,69.6,202.9,70z"/>
	<path class="st0" d="M207.8,70h1.2l2.2-3.9c12.5-21.7,21.4-44.7,27.5-66.1h-1c-6.1,21.2-14.9,44-27.3,65.6L207.8,70z"/>
</g>
<g>
	<path class="st0" d="M207.3,72.1l-210-0.4l0.2-74l240.6-1.3l-1,3.6H0v70h207.8L207.3,72.1 M208.1,73.1l0.3-0.7l0.5-2.1l0.3-1.3
		h-1.3H1V1h236h0.8l0.2-0.7l1-3.6l0.3-1.3H238L-2.5-3.3h-1v1l-0.2,74v1h1l210,0.4H208.1L208.1,73.1z"/>
</g>
</svg>
