<?xml version="1.0" encoding="utf-8"?>
<!-- Generator: Adobe Illustrator 24.1.2, SVG Export Plug-In . SVG Version: 6.00 Build 0)  -->
<svg version="1.1" id="Layer_1" xmlns="http://www.w3.org/2000/svg" xmlns:xlink="http://www.w3.org/1999/xlink" x="0px" y="0px"
	 viewBox="0 0 250 70" style="enable-background:new 0 0 250 70;" xml:space="preserve">
<style type="text/css">
	.st0{fill:#8FBC8F;}
</style>
<g>
	<path class="st0" d="M3.2,70c11-2.3,20.2-3.2,28.5-3.2c10.8,0,19.9,1.5,28.6,3.2h5.2c-0.4-0.1-0.8-0.1-1.2-0.2
		C47.1,66.4,29.5,62.9,0,69.7V70H3.2z"/>
	<path class="st0" d="M14.1,59.8c6.5-0.8,13.5-1.4,20.9-1.4c15.5,0,32.8,2.6,50.9,11.5h2.5c-17.2-9-40.5-15.3-74.4-11.1
		C9.2,59.4,4.5,60.2,0,61v1C4.6,61.2,9.2,60.4,14.1,59.8z"/>
	<path class="st0" d="M33.1,54.8c14.8,0,29,2,41.6,5.9c8.6,2.8,15.9,5.9,22.2,9.2h2.1c-6.7-3.7-14.7-7.2-24-10.2
		C53,52.9,26.5,52,0,57v1C11.1,55.9,22.3,54.8,33.1,54.8z"/>
	<path class="st0" d="M25.8,48c1.1,0,2.3,0,3.5,0c38,0.8,63.8,12.4,78.8,22h1.8c-0.4-0.2-0.8-0.5-1.1-0.7
		C93.7,59.6,67.6,47.8,29.3,47C19.4,46.8,9.6,47.5,0,49.1v1C8.4,48.7,17.1,48,25.8,48z"/>
	<path class="st0" d="M26.4,40.9c21.3,0,42.6,3.9,62.7,11.7c12,4.6,21.9,10.6,30.2,17.4h1.6c-8.6-7.2-18.9-13.5-31.5-18.3
		C60.9,40.7,30.1,37.3,0,41.9v1C8.8,41.6,17.6,40.9,26.4,40.9z"/>
	<path class="st0" d="M32.2,33.2c12.9,0,25.7,1.5,38.3,4.6c23.9,5.9,42.6,18.6,56.6,32.1h1.4c-14.2-13.9-33.2-27.1-57.8-33.1
		C47.7,31.2,23.9,30.7,0,35.4v1C10.8,34.3,21.6,33.2,32.2,33.2z"/>
	<path class="st0" d="M42.6,23.8c44.6,0,76.1,22.4,94.6,41.3c1.6,1.6,3.2,3.3,4.7,4.9h1.3c-1.7-1.9-3.4-3.7-5.3-5.6
		c-18.7-19-50.4-41.6-95.3-41.6c-15.2,0-29.4,1.4-42.6,3.6v1C13.5,25.1,27.8,23.8,42.6,23.8z"/>
	<path class="st0" d="M33.6,28.5c16,0,31.2,2.4,45.5,7.2c23.6,7.9,41.6,20.7,55.1,34.3h1.4c-13.7-13.9-32-27.1-56.2-35.2
		C55.2,26.6,28.3,25.3,0,30.8v1C11.4,29.6,22.7,28.5,33.6,28.5z"/>
	<path class="st0" d="M30.6,16c16.6,0,32.5,2.4,47.2,7.1c33,10.7,55.8,29.8,70.6,46.9h1.3c-14.9-17.4-38-37-71.6-47.8
		C54.5,14.5,27.8,13.1,0,17.5v1C10.4,16.9,20.6,16,30.6,16z"/>
	<path class="st0" d="M36.2,7.6c18.6,0,37.8,2.9,56.4,10.5C121.8,30,135.9,48,136,48.2c0,0,0,0,0.1,0.1C143.5,55,150,62.4,155.8,70
		h1.3c-5.9-7.9-12.7-15.4-20.3-22.5C136.1,46.6,121.9,29,93,17.2C61.9,4.6,29.1,4.8,0,10.1v1C11.6,9,23.8,7.6,36.2,7.6z"/>
	<path class="st0" d="M26.8,1.5c44.9-0.8,77.9,16,97.6,30.2c10.7,7.7,23.3,21.6,35.1,38.3h1.2c-12-17.1-24.9-31.3-35.8-39.1
		c-19.8-14.3-53-31.2-98.2-30.4C17.9,0.6,9,1.4,0,2.9v1C9,2.4,17.9,1.6,26.8,1.5z"/>
	<path class="st0" d="M150.7,52.2c4.8,5.9,9.3,11.8,13.6,17.8h1.2c-4.4-6.2-9.1-12.3-14.1-18.4C128.4,23.5,98.8,6.2,63.4,0h-6.6
		C94.8,5.1,126.4,22.6,150.7,52.2z"/>
	<path class="st0" d="M0,0v0.9C2.2,0.6,4.5,0.3,6.8,0H0z"/>
	<path class="st0" d="M93.8,4.6c26.3,10.1,43.3,25.3,48.6,31.9c0,0,0,0,0,0c0.2,0.3,11.9,13.2,25.9,33.4h1.2
		c-14.1-20.4-25.9-33.6-26.3-34.1c-5.4-6.7-22.5-22.1-49-32.2C90.7,2.3,87.1,1.1,83.4,0h-3.6C84.5,1.3,89.2,2.8,93.8,4.6z"/>
	<path class="st0" d="M151.5,36c12.8,12.9,21.6,25.7,26.7,34h1.2c-5.1-8.3-14.1-21.5-27.1-34.7c-12.1-12.2-29.3-26-51.6-35.3h-2.6
		C121.3,9.2,139.1,23.5,151.5,36z"/>
	<path class="st0" d="M123.9,8.7C149,23,170.5,43.6,187.5,70h1.2c-0.1-0.1-0.2-0.3-0.3-0.4C171.3,43,149.7,22.2,124.4,7.8
		C119.3,5,114.1,2.4,108.7,0h-2.6C112.3,2.6,118.2,5.5,123.9,8.7z"/>
	<path class="st0" d="M146.5,16.2c17.9,13.6,33.4,31.4,46.6,53.8h1.2c-13.4-22.7-29.1-40.8-47.2-54.6c-7.8-5.9-16-11-24.8-15.4h-2.3
		C129.5,4.6,138.3,10,146.5,16.2z"/>
	<path class="st0" d="M151.1,13.4c20.2,15.7,35.1,35.4,47,56.6h1.1c-12-21.5-27-41.4-47.6-57.4C145.8,8,139.5,3.8,132.8,0h-2
		C138,4,144.7,8.5,151.1,13.4z"/>
	<path class="st0" d="M199.4,63.1c0.9,1.9,2.1,4.2,3.5,6.9h1.1c-1.5-2.9-2.8-5.3-3.8-7.3c-8.9-18.2-26.1-43-58.1-62.7h-1.9
		C172.9,19.7,190.4,44.8,199.4,63.1z"/>
	<path class="st0" d="M207.3,69l0.6,1h1.2l-0.9-1.5C190.4,37.4,178.6,16.7,153.3,0h-1.9C177.4,16.8,189.3,37.5,207.3,69z"/>
</g>
<g>
	<path class="st0" d="M152.5-2.9L152.3,0L0,0v70h207.5l1.2,4.7L-5.9,75.3l3.3-77.6L152.5-2.9 M153.6-3.9l-1.1,0l-155,0.6l-1,0l0,1
		l-3.3,77.6l0,1l1,0l214.6-0.6l1.3,0l-0.3-1.3l-1.2-4.7l-0.2-0.7h-0.8H1V1l151.3,0l0.9,0l0.1-0.9l0.3-2.9L153.6-3.9L153.6-3.9z"/>
</g>
</svg>
