<?xml version="1.0" encoding="utf-8"?>
<!-- Generator: Adobe Illustrator 24.1.2, SVG Export Plug-In . SVG Version: 6.00 Build 0)  -->
<svg version="1.1" id="Layer_1" xmlns="http://www.w3.org/2000/svg" xmlns:xlink="http://www.w3.org/1999/xlink" x="0px" y="0px"
	 viewBox="0 0 250 70" style="enable-background:new 0 0 250 70;" xml:space="preserve">
<style type="text/css">
	.st0{fill:#8FBC8F;}
</style>
<g>
	<path class="st0" d="M223.3,0h-4.6C230.9,2.9,241,4.1,250,4.2v-1C242.2,3.1,233.5,2.2,223.3,0z"/>
	<path class="st0" d="M191.8,0.1H189c13.4,5.3,28.4,9.1,44.9,11.1c5.7,0.7,11,1.1,16.1,1.2v-0.9c-5.6-0.2-10.9-0.7-15.9-1.3
		C218.6,8.3,204.5,4.9,191.8,0.1z"/>
	<path class="st0" d="M180.3-0.1h-2.5c6.6,3,13.5,5.6,20.7,7.8c17.1,5.3,34.7,8.1,51.5,8.4v-1c-16.7-0.3-34.2-3.1-51.2-8.3
		C192.4,4.8,186.2,2.6,180.3-0.1z"/>
	<path class="st0" d="M166.4,0h-1.9c25,15.6,54.4,23.7,84.9,23c0.2,0,0.5,0,0.7,0v-1c-0.2,0-0.5,0-0.7,0c-1.2,0-2.4,0-3.5,0
		C217.3,22,189.9,14.4,166.4,0z"/>
	<path class="st0" d="M150.9,0h-1.7c19,13.4,41.1,22.6,64.9,27.1c11.9,2.3,23.9,3.2,35.9,3v-1c-1.2,0-2.4,0-3.6,0
		c-10.7,0-21.5-1-32.1-3C191.2,21.7,169.6,12.8,150.9,0z"/>
	<path class="st0" d="M140.7,0h-1.9c15.2,9.7,33.6,19.9,53.9,27.2c19.2,6.8,38.4,10.3,57.3,10.6v-1c-18.8-0.3-37.9-3.8-57-10.6
		C173.4,19.2,155.5,9.4,140.7,0z"/>
	<path class="st0" d="M116.4,0h-1.7c11.8,8.7,25.2,16.4,36.3,21.7c22.1,10.6,56.5,23.1,99,25.2v-1C192.7,43,144.8,20.7,116.4,0z"/>
	<path class="st0" d="M130.9,0h-1.8c14.7,9.9,32,19.6,50.9,27.2c24,9.7,47.6,14.8,70,15.3v-1c-22.2-0.5-45.7-5.6-69.6-15.2
		C162.1,18.9,145.2,9.6,130.9,0z"/>
	<path class="st0" d="M106.9,0.1h-1.5c16.5,14.1,37.4,27,60.5,36.7c28.6,12,57.3,18.1,84.1,18.2v-1c-26.7-0.1-55.2-6.2-83.7-18.2
		C143.7,26.3,123.2,13.8,106.9,0.1z"/>
	<path class="st0" d="M96.8,0h-1.5c18.1,17.4,43.4,33.5,78.8,47c20.9,7.9,47.7,15.3,76,16.3v-1c-28.3-1-54.9-8.4-75.7-16.3
		C139.7,32.8,114.7,17.1,96.8,0z"/>
	<path class="st0" d="M88,0h-1.4c8.4,8.9,14.6,13.4,14.7,13.5l0,0c50.3,36.3,99.3,55.2,145.4,56c1.1,0,2.2,0,3.3,0v-1
		c-1,0-2.1,0-3.2,0c-45.9-0.8-94.7-19.6-144.9-55.8l0,0C101.8,12.6,96,8.4,88,0z"/>
	<path class="st0" d="M78.5,0h-1.3c6.1,6.5,12.9,12.7,20.2,18.7c31.9,25.6,64,37.1,76.4,40.8l0,0c12.1,3.6,27.7,7.8,45.4,10.5h7.6
		c-20.7-2.5-39-7.4-52.7-11.5l0,0C166.2,56.2,116.8,40.1,78.5,0z"/>
	<path class="st0" d="M69.2,0h-1.3c19.7,22.6,48.3,44.3,90.2,59.6c11.8,4.2,23.4,7.7,34.7,10.5h4.6c-14.2-3.2-27.4-7.3-39-11.5
		C117.2,43.6,88.8,22.3,69.2,0z"/>
	<path class="st0" d="M61.7,0h-1.3c23.3,28.7,50,49.2,80.8,62.2c7,3,14.2,5.5,21.7,7.8h3.6c-8.7-2.4-17-5.3-24.9-8.7
		C111.2,48.4,84.8,28.2,61.7,0z"/>
	<path class="st0" d="M49.4,0h-1.3c0.7,0.9,1.4,1.9,2.1,2.8C68.4,26.3,98.4,53.2,146.5,70h3.1C100.1,53.3,69.4,26,51,2.2
		C50.5,1.5,49.9,0.8,49.4,0z"/>
	<path class="st0" d="M36.7,0.1h-1.2c2.8,4.1,5.6,8,8.7,11.9c22.1,28,49,46.2,75.1,58.1h2.4C95.1,58.3,67.5,39.9,44.9,11.3
		C42,7.6,39.3,3.8,36.7,0.1z"/>
	<path class="st0" d="M28.9,0h-1.2C50.1,34.3,77.1,56.1,102,70h2C79,56.3,51.6,34.5,28.9,0z"/>
	<path class="st0" d="M18.4,0h-1.2c17.2,26,38.2,49.4,57.4,63.5c3.1,2.3,6.2,4.5,9.3,6.5h1.8c-3.4-2.3-6.9-4.7-10.5-7.3
		C56.2,48.8,35.4,25.7,18.4,0z"/>
	<path class="st0" d="M8.5,0H7.3c15.5,24.6,31.6,41.5,36.8,46.6c7.8,7.7,19.3,15.8,31.5,23.4h1.9c-12.7-7.8-24.7-16.1-32.7-24.1
		C39.7,40.8,23.7,24.2,8.5,0z"/>
</g>
<g>
	<path class="st0" d="M253.5,74.6L80.3,73.4L77.4,70H250V0H8.9L8.3-3.3l245.2-0.6V74.6 M254.5,75.6v-1V-3.9v-1h-1L8.4-4.3H7.2
		l0.2,1.2L8,0.2L8.1,1h0.8H249v68H77.4h-2.2l1.5,1.6l2.9,3.4l0.4,0.4h0.4l173.1,1.2H254.5L254.5,75.6z"/>
</g>
</svg>
