<?xml version="1.0" encoding="utf-8"?>
<!-- Generator: Adobe Illustrator 24.1.2, SVG Export Plug-In . SVG Version: 6.00 Build 0)  -->
<svg version="1.1" id="Layer_1" xmlns="http://www.w3.org/2000/svg" xmlns:xlink="http://www.w3.org/1999/xlink" x="0px" y="0px"
	 viewBox="0 0 250 70" style="enable-background:new 0 0 250 70;" xml:space="preserve">
<style type="text/css">
	.st0{fill:#8FBC8F;}
</style>
<g>
	<path class="st0" d="M250,67.1v-1.1c-2.7,1.1-5,2.3-7.2,3.9h1.7C246.2,68.9,248,68,250,67.1z"/>
	<path class="st0" d="M250,49.4v-1.1c-12.2,4.4-20.6,11.2-27.6,21.6h1.2C230.4,60.2,238.4,53.7,250,49.4z"/>
	<path class="st0" d="M225.3,45.7c5-3.2,13.8-8.2,24.7-12v-1.1c-11.2,3.9-20.2,9-25.3,12.3c-5.9,3.7-14.7,12.9-22,25.1h1.1
		C211,58.2,219.6,49.4,225.3,45.7z"/>
	<path class="st0" d="M213.1,40c12.1-9.3,24.5-14.8,36.9-17.9v-1c-12.7,3.1-25.3,8.7-37.6,18.1c-11,8.4-19.5,19-25.3,30.8h1.1
		C194,58.5,202.3,48.3,213.1,40z"/>
	<path class="st0" d="M250,11.4v-1c-42.7,10.4-68,38.4-76.6,59.7h1.1C183.1,49,208,21.7,250,11.4z"/>
	<path class="st0" d="M250,5.1v-1c-21.3,4.9-64.5,20.2-84.5,66h1.1C186.4,25.1,228.9,10,250,5.1z"/>
	<path class="st0" d="M231.7,5.8c6.6-2.1,12.6-3.8,18.2-5.1V0h-1.3c-5.3,1.3-11,2.8-17.2,4.8C195,16.6,169,44.4,158.2,70h1.1
		C170.1,44.7,195.7,17.4,231.7,5.8z"/>
	<path class="st0" d="M154.7,60.5c14-28.6,36.6-48.8,67.2-60.5h-2.8c-29.6,11.9-51.5,32-65.3,60.1c-1.6,3.3-3,6.6-4.3,9.9h1.1
		C151.8,66.8,153.1,63.7,154.7,60.5z"/>
	<path class="st0" d="M159.7,39.5c9.1-15.3,27.4-29.4,50.7-39.5h-2.5c-22.5,10.1-40.2,24-49.1,39c-5.8,9.8-10.7,20.3-14.5,31h1.1
		C149.2,59.5,153.9,49.2,159.7,39.5z"/>
	<path class="st0" d="M173,17.5C180.2,10.9,188,5,196.3,0h-1.9c-7.8,4.9-15.2,10.5-22.1,16.8c-16.7,15.3-29.5,34-37,53.2h1.1
		C143.9,51,156.5,32.6,173,17.5z"/>
	<path class="st0" d="M163,14.4c5.6-5.2,11.6-10.1,18-14.4h-1.7c-5.9,4.2-11.6,8.7-16.9,13.7c-19.1,17.8-31.4,35.9-38,56.3h1.1
		C132,49.9,144.1,32.1,163,14.4z"/>
	<path class="st0" d="M147.7,15.6c6.4-4.7,14.1-10.1,22.9-15.6h-1.9c-8.2,5.2-15.5,10.3-21.6,14.8c-17.5,12.7-27.9,33.7-33.8,55.2h1
		C120.2,48.8,130.5,28.1,147.7,15.6z"/>
	<path class="st0" d="M122.8,22.4C127.3,16,135.4,8.1,146.5,0h-1.7c-9.3,6.9-17.5,14.3-22.8,21.8c-9.3,13.1-18.5,27.7-24.3,48.2h0.9
		C104.3,50,113.2,35.8,122.8,22.4z"/>
	<path class="st0" d="M126,27.9c8.3-8.3,20.3-18.2,34.9-27.9h-1.8c-14.1,9.5-25.7,19.1-33.8,27.2c-9.7,9.6-17.2,24.5-21.8,42.8h1
		C109.1,52,116.5,37.4,126,27.9z"/>
	<path class="st0" d="M106.7,35.8C113,23.6,123.5,11.4,136.9,0h-1.5c-13.1,11.3-23.3,23.3-29.6,35.3c-5.9,11.4-10.6,23-14.1,34.7h1
		C96.2,58.4,100.8,47,106.7,35.8z"/>
	<path class="st0" d="M126.7,0h-1.5c-23.1,22.2-34.6,46.5-40.4,70h1.1C91.7,46.5,103.3,22.2,126.7,0z"/>
	<path class="st0" d="M94.6,31.5C102.4,17.9,111,7.4,118,0h-1.4c-6.9,7.4-15.3,17.7-22.9,31c-5.9,10.4-11.9,23.4-16.1,39h1
		C82.9,54.7,88.7,41.8,94.6,31.5z"/>
	<path class="st0" d="M108.5,0h-1.3c-19.5,20.6-33,44.1-40.1,70h1.1C76.1,41.1,91.2,18.1,108.5,0z"/>
	<path class="st0" d="M65.6,56.9C71.9,39.6,82.2,19.4,99.2,0h-1.3c-16.8,19.3-27,39.3-33.2,56.5c-1.6,4.4-3,8.9-4.3,13.5h1
		C62.7,65.6,64.1,61.2,65.6,56.9z"/>
	<path class="st0" d="M68.9,31.9C76.1,20.3,83.7,9.7,91.6,0h-1.3c-7.8,9.5-15.2,20-22.3,31.3C60.5,43.5,54.8,56.4,50.8,70h1
		C55.8,56.6,61.5,43.9,68.9,31.9z"/>
	<path class="st0" d="M79.4,0h-1.3C62.6,20.8,51.8,44.4,45.7,70h1C52.8,44.4,63.8,20.8,79.4,0z"/>
	<path class="st0" d="M66.6,0h-1.2C52.7,18.8,43.4,39.4,37.8,61.4c-0.7,2.9-1.4,5.7-2,8.6h0.9C42,44.8,52,21.4,66.6,0z"/>
	<path class="st0" d="M51.7,11.7c2.3-4.1,4.8-7.9,7.2-11.7h-1.2c-2.3,3.6-4.6,7.3-6.9,11.2C39.2,31.4,31.7,51.2,27.2,70h1
		C32.7,51.3,40.2,31.7,51.7,11.7z"/>
	<path class="st0" d="M43.2,8.1c1.7-2.7,3.4-5.4,5.2-8.1h-1.2c-1.6,2.5-3.2,5-4.8,7.5C28.5,30,19.1,51.8,15.2,70h1
		C20.1,52,29.5,30.4,43.2,8.1z"/>
	<path class="st0" d="M38.4,0h-1.2C25.1,19.3,13.4,43.3,7.8,70h1C14.5,43.2,26.3,19.2,38.4,0z"/>
</g>
<g>
	<path class="st0" d="M255.2-6.8v84.5L8.6,76.3L9.4,70H250l0-70H38.4l2.3-5.5L255.2-6.8 M256.2-7.8l-1,0L40.7-6.5l-0.7,0l-0.3,0.6
		l-2.3,5.5L36.9,1h1.5H249l0,68H9.4H8.6l-0.1,0.9l-0.9,6.3l-0.2,1.1l1.1,0l246.7,1.3l1,0v-1V-6.8V-7.8L256.2-7.8z"/>
</g>
</svg>
