<?xml version="1.0" encoding="utf-8"?>
<!-- Generator: Adobe Illustrator 24.1.2, SVG Export Plug-In . SVG Version: 6.00 Build 0)  -->
<svg version="1.1" id="Layer_1" xmlns="http://www.w3.org/2000/svg" xmlns:xlink="http://www.w3.org/1999/xlink" x="0px" y="0px"
	 viewBox="0 0 940 160" style="enable-background:new 0 0 940 160;" xml:space="preserve">
<style type="text/css">
	.st0{fill:none;stroke:#8FBC8F;stroke-miterlimit:10;}
</style>
<circle class="st0" cx="119.9" cy="73" r="18.7"/>
<path class="st0" d="M308,160c0,0,73.5-3.5,140.1-26.4c54.4-18.7,77.6-43.7,121.1-49.7c16.3-2.2,19.2-2.3,78,12.4"/>
<path class="st0" d="M547,133.4c0,0,114.8-37.7,196.5-81.7S835.7,25,875.2,40"/>
<path class="st0" d="M810.2,127c0,0,85.8-121.8,103.2-127"/>
<path class="st0" d="M0,89.6c0,0,24.5-14.4,53.9,8.6c24.8,19.4,36.6,43.1,75,61.8"/>
<path class="st0" d="M79.7,124c0,0,19.4-15.1,52,7.7c12.1,8.4,29.8,20.3,50.2,28.3"/>
</svg>
