<?xml version="1.0" encoding="utf-8"?>
<!-- Generator: Adobe Illustrator 24.1.2, SVG Export Plug-In . SVG Version: 6.00 Build 0)  -->
<svg version="1.1" id="Layer_1" xmlns="http://www.w3.org/2000/svg" xmlns:xlink="http://www.w3.org/1999/xlink" x="0px" y="0px"
	 viewBox="0 0 300 150" style="enable-background:new 0 0 300 150;" xml:space="preserve">
<g>
	<g>
		<path d="M71.2,59.4c-4.3-0.1-6.4-0.2-10.6-0.4c-0.7,2-1,2.9-1.7,4.9c-3.2-0.2-4.8-0.3-7.9-0.6c3.7-9.3,7.3-18.6,10.9-27.9
			c3.3,0.2,4.9,0.2,8.1,0.3c3.6,9.6,7.3,19.2,10.9,28.9c-3.2,0-4.8,0-7.9-0.1C72.2,62.4,71.9,61.4,71.2,59.4z M69.2,53.6
			c-1.3-3.9-2-5.8-3.3-9.7c-1.3,3.8-2,5.6-3.3,9.4C65.2,53.5,66.6,53.6,69.2,53.6z"/>
		<path d="M97.2,48.3c5.9-0.1,8.9-0.2,14.8-0.5c0,1.5-0.1,2.9-0.2,4.1c-0.1,1.2-0.4,2.4-0.8,3.5c-0.5,1.5-1.3,2.9-2.2,4.1
			c-0.9,1.2-2,2.2-3.2,3c-1.2,0.8-2.6,1.4-4,1.9c-1.5,0.4-3,0.7-4.6,0.7c-2.2,0-4.3-0.3-6.1-1c-1.8-0.7-3.4-1.7-4.7-3.1
			c-1.3-1.3-2.3-2.9-3.1-4.8c-0.7-1.9-1.1-3.9-1.1-6.2c0-2.2,0.4-4.3,1.1-6.1c0.7-1.9,1.7-3.4,3.1-4.8c1.3-1.3,2.9-2.4,4.8-3.1
			c1.9-0.8,4-1.2,6.3-1.2c3-0.1,5.6,0.5,7.9,1.7c2.3,1.2,4,3.2,5.4,5.8c-2.8,1.3-4.2,1.9-7.1,3.2c-0.7-1.5-1.5-2.7-2.6-3.3
			c-1.1-0.7-2.2-1-3.6-0.9c-1.1,0-2.1,0.3-3,0.7c-0.9,0.4-1.7,1-2.3,1.8c-0.6,0.8-1.2,1.7-1.5,2.8c-0.4,1.1-0.6,2.3-0.6,3.7
			c0,1.2,0.2,2.3,0.5,3.4c0.3,1,0.8,1.9,1.4,2.7c0.6,0.8,1.4,1.3,2.4,1.7c0.9,0.4,2,0.6,3.3,0.6c0.7,0,1.4-0.1,2.1-0.3
			c0.7-0.2,1.3-0.5,1.8-0.8c0.5-0.4,1-0.9,1.3-1.5c0.4-0.6,0.6-1.3,0.7-2.1c-2.4,0.1-3.7,0.1-6.1,0.2C97.2,51.8,97.2,50.6,97.2,48.3
			z"/>
		<path d="M133.2,57.8c-4.3,0.2-6.4,0.4-10.6,0.6c-0.7,2-1,3-1.7,5.1c-3.2,0.2-4.8,0.2-7.9,0.4c3.6-9.7,7.3-19.4,10.9-29.2
			c3.3-0.2,4.9-0.3,8.1-0.4c3.6,9.3,7.3,18.7,10.9,28c-3.2,0.2-4.8,0.3-7.9,0.5C134.2,60.8,133.8,59.8,133.2,57.8z M131.2,52.3
			c-1.3-3.7-2-5.6-3.3-9.4c-1.3,3.9-2,5.8-3.3,9.7C127.2,52.5,128.5,52.4,131.2,52.3z"/>
		<path d="M153.5,32.9c0,9.6,0,19.1,0,28.7c-3,0.2-4.5,0.3-7.4,0.5c0-9.6,0-19.1,0-28.7C149.1,33.2,150.5,33.1,153.5,32.9z"/>
		<path d="M159.5,61.2c0-9.6,0-19.1,0-28.7c3-0.2,4.5-0.3,7.4-0.4c5.5,6.7,8.3,10.1,13.8,16.8c0-7,0-10.5,0-17.5
			c3-0.1,4.4-0.2,7.4-0.3c0,9.6,0,19.1,0,28.7c-3,0.1-4.4,0.2-7.4,0.3c-5.5-6.8-8.3-10.1-13.8-16.8c0,7,0,10.5,0,17.5
			C164,61,162.5,61,159.5,61.2z"/>
		<path d="M209.9,38c-0.8-0.7-1.6-1.1-2.4-1.4c-0.8-0.3-1.6-0.5-2.4-0.4c-1,0-1.7,0.3-2.4,0.7c-0.6,0.5-0.9,1.1-0.9,1.8
			c0,0.5,0.2,0.9,0.5,1.2c0.3,0.3,0.7,0.6,1.2,0.8s1.1,0.4,1.7,0.6c0.6,0.2,1.2,0.4,1.8,0.5c2.4,0.8,4.2,1.9,5.3,3.2
			c1.1,1.4,1.7,3.1,1.7,5.3c0,1.5-0.2,2.8-0.7,4c-0.5,1.2-1.2,2.2-2.2,3.1c-1,0.9-2.1,1.5-3.5,2c-1.4,0.5-2.9,0.7-4.7,0.8
			c-3.6,0.1-7-0.9-10.1-3c1.3-2.4,1.9-3.7,3.2-6.1c1.1,1,2.2,1.7,3.3,2.1c1.1,0.5,2.2,0.7,3.2,0.7c1.2,0,2.1-0.3,2.7-0.9
			c0.6-0.6,0.9-1.2,0.9-1.9c0-0.4-0.1-0.8-0.2-1.1c-0.2-0.3-0.4-0.6-0.8-0.9c-0.4-0.3-0.8-0.5-1.4-0.7c-0.6-0.2-1.3-0.5-2.1-0.7
			c-0.9-0.3-1.9-0.6-2.8-0.9c-0.9-0.3-1.7-0.8-2.5-1.4c-0.7-0.6-1.3-1.3-1.7-2.2c-0.4-0.9-0.7-2.1-0.7-3.5c0-1.4,0.2-2.7,0.7-3.9
			s1.1-2.2,2-3c0.8-0.8,1.9-1.5,3.1-2c1.2-0.5,2.6-0.7,4.1-0.8c1.4,0,2.9,0.2,4.4,0.5c1.5,0.4,3,1,4.4,1.7
			C211.7,34.5,211.1,35.6,209.9,38z"/>
		<path d="M229.7,37.2c0,8.9,0,13.4,0,22.3c-3-0.1-4.5-0.2-7.4-0.2c0-8.9,0-13.4,0-22.3c-2.4,0-3.7-0.1-6.1-0.1c0-2.5,0-3.8,0-6.3
			c7.9,0.1,11.8,0.2,19.7,0.6c0,2.5,0,3.8,0,6.3C233.4,37.4,232.2,37.3,229.7,37.2z"/>
		<path d="M51,86.5c0,8.9,0,13.4,0,22.3c-3-0.2-4.5-0.4-7.4-0.7c0-8.9,0-13.4,0-22.3c-2.4-0.3-3.7-0.4-6.1-0.7c0-2.5,0-3.8,0-6.3
			c7.9,1,11.8,1.3,19.7,1.8c0,2.5,0,3.8,0,6.3C54.7,86.8,53.5,86.7,51,86.5z"/>
		<path d="M67.9,92.2c4.3,0.2,6.5,0.2,10.8,0.3c0-4.4,0-6.6,0-11.1c3,0,4.5,0,7.4,0c0,9.6,0,19.1,0,28.7c-3,0-4.5,0-7.4,0
			c0-4.7,0-7.1,0-11.8c-4.3,0-6.5-0.1-10.8-0.3c0,4.7,0,7.1,0,11.8c-3-0.1-4.5-0.2-7.4-0.3c0-9.6,0-19.1,0-28.7
			c3,0.2,4.5,0.2,7.4,0.3C67.9,85.6,67.9,87.8,67.9,92.2z"/>
		<path d="M108.4,87.3c-3.5,0.1-5.3,0.2-8.9,0.3c0,1.9,0,2.9,0,4.8c3.3-0.1,5-0.1,8.4-0.3c0,2.5,0,3.8,0,6.3c-3.3,0.1-5,0.2-8.4,0.3
			c0,2,0,3,0,4.9c3.5-0.1,5.3-0.1,8.9-0.3c0,2.5,0,3.8,0,6.3c-6.5,0.2-9.8,0.3-16.3,0.4c0-9.6,0-19.1,0-28.7
			c6.5-0.1,9.8-0.2,16.3-0.4C108.4,83.5,108.4,84.8,108.4,87.3z"/>
		<path d="M140.6,91.9c5.9-0.4,8.9-0.5,14.8-0.9c0,1.5-0.1,2.9-0.2,4.2c-0.1,1.2-0.4,2.4-0.8,3.5c-0.5,1.5-1.3,2.9-2.2,4.1
			c-0.9,1.2-2,2.2-3.2,3.1c-1.2,0.8-2.6,1.5-4,2c-1.5,0.5-3,0.8-4.6,0.9c-2.2,0.1-4.3-0.1-6.1-0.7c-1.8-0.6-3.4-1.6-4.7-2.8
			c-1.3-1.3-2.3-2.8-3.1-4.6c-0.7-1.8-1.1-3.9-1.1-6.1c0-2.2,0.4-4.3,1.1-6.2c0.7-1.9,1.7-3.5,3.1-4.9c1.3-1.4,2.9-2.5,4.8-3.4
			c1.9-0.8,4-1.3,6.3-1.5c3-0.2,5.6,0.3,7.9,1.5c2.3,1.2,4,3,5.4,5.7c-2.8,1.3-4.2,2-7.1,3.4c-0.7-1.5-1.5-2.6-2.6-3.2
			c-1.1-0.6-2.2-0.9-3.6-0.8c-1.1,0.1-2.1,0.3-3,0.8c-0.9,0.5-1.7,1.1-2.3,1.9c-0.6,0.8-1.2,1.8-1.5,2.9c-0.4,1.1-0.6,2.3-0.6,3.7
			c0,1.2,0.2,2.3,0.5,3.4c0.3,1,0.8,1.9,1.4,2.6c0.6,0.7,1.4,1.3,2.4,1.6c0.9,0.4,2,0.5,3.3,0.4c0.7,0,1.4-0.2,2.1-0.4
			c0.7-0.2,1.3-0.5,1.8-0.9c0.5-0.4,1-0.9,1.3-1.5c0.4-0.6,0.6-1.3,0.7-2.2c-2.4,0.2-3.7,0.2-6.1,0.4
			C140.6,95.4,140.6,94.2,140.6,91.9z"/>
		<path d="M183.9,105.5c-3.7,0.2-5.6,0.2-9.3,0.4c-2.8-4.3-4.3-6.4-7.1-10.6c0,4.4,0,6.6,0,11c-3,0.2-4.5,0.3-7.4,0.4
			c0-9.6,0-19.1,0-28.7c4.6-0.3,7-0.4,11.6-0.7c1.6-0.1,3,0.1,4.2,0.5c1.2,0.4,2.2,1,2.9,1.8c0.8,0.8,1.4,1.7,1.7,2.7
			c0.4,1,0.6,2.2,0.6,3.4c0,2.2-0.5,4-1.6,5.4c-1.1,1.4-2.6,2.4-4.7,3C178.5,98.7,180.3,101,183.9,105.5z M167.6,90.5
			c0.6,0,0.8,0,1.4-0.1c1.5-0.1,2.6-0.4,3.4-1.1c0.8-0.6,1.2-1.5,1.2-2.7c0-1.1-0.4-2-1.2-2.6c-0.8-0.6-1.9-0.8-3.4-0.7
			c-0.6,0-0.8,0-1.4,0.1C167.6,86.3,167.6,87.7,167.6,90.5z"/>
		<path d="M204.6,99.9c-4.3,0.1-6.4,0.1-10.6,0.2c-0.7,2-1,3-1.7,5c-3.2,0.1-4.8,0.2-7.9,0.3c3.6-9.7,7.3-19.4,10.9-29
			c3.3-0.1,4.9-0.1,8.1-0.2c3.6,9.5,7.3,19,10.9,28.6c-3.2,0-4.8,0-7.9,0C205.6,102.9,205.3,101.9,204.6,99.9z M202.6,94.3
			c-1.3-3.8-2-5.7-3.3-9.5c-1.3,3.8-2,5.8-3.3,9.6C198.6,94.4,200,94.4,202.6,94.3z"/>
		<path d="M225,76.4c0,9.6,0,19.1,0,28.7c-3-0.1-4.5-0.1-7.4-0.1c0-9.6,0-19.1,0-28.7C220.5,76.3,222,76.3,225,76.4z"/>
		<path d="M231,105.2c0-9.6,0-19.1,0-28.7c3,0.1,4.5,0.2,7.4,0.4c5.5,7.3,8.3,11,13.8,18.6c0-7,0-10.5,0-17.5c3,0.3,4.4,0.5,7.4,0.8
			c0,9.6,0,19.1,0,28.7c-3-0.4-4.4-0.5-7.4-0.8c-5.5-7.6-8.3-11.3-13.8-18.6c0,7,0,10.5,0,17.5C235.5,105.4,234,105.3,231,105.2z"/>
	</g>
</g>
</svg>
